<svg xmlns="http://www.w3.org/2000/svg" xmlns:xlink="http://www.w3.org/1999/xlink" width="162" zoomAndPan="magnify" viewBox="0 0 121.5 44.999999" height="60" preserveAspectRatio="xMidYMid meet" version="1.0"><defs><g/><clipPath id="id1"><path d="M 42 0.09375 L 72 0.09375 L 72 27 L 42 27 Z M 42 0.09375 " clip-rule="nonzero"/></clipPath><clipPath id="id2"><path d="M 79 0.09375 L 96 0.09375 L 96 22 L 79 22 Z M 79 0.09375 " clip-rule="nonzero"/></clipPath><clipPath id="id3"><path d="M 43 0.09375 L 73 0.09375 L 73 26 L 43 26 Z M 43 0.09375 " clip-rule="nonzero"/></clipPath><clipPath id="id4"><path d="M 80 0.09375 L 96 0.09375 L 96 21 L 80 21 Z M 80 0.09375 " clip-rule="nonzero"/></clipPath><clipPath id="id5"><path d="M 43 16 L 75 16 L 75 44.90625 L 43 44.90625 Z M 43 16 " clip-rule="nonzero"/></clipPath><clipPath id="id6"><path d="M 43 16 L 76 16 L 76 44.90625 L 43 44.90625 Z M 43 16 " clip-rule="nonzero"/></clipPath><clipPath id="id7"><path d="M 4.5 2.34375 L 34.5 2.34375 L 34.5 42.84375 L 4.5 42.84375 Z M 4.5 2.34375 " clip-rule="nonzero"/></clipPath></defs><g clip-path="url(#id1)"><g fill="#00c4cc" fill-opacity="1"><g transform="translate(46.231909, 25.727411)"><g><path d="M 11.949219 -1.34375 C 12.730469 -1.363281 13.5625 -1.597656 14.417969 -2.066406 C 15.226562 -2.507812 15.929688 -3.140625 16.554688 -4.003906 C 15.648438 -4.152344 14.957031 -4.457031 14.539062 -4.902344 C 14.117188 -5.347656 13.84375 -5.886719 13.742188 -6.5 C 13.617188 -7.085938 13.613281 -7.738281 13.738281 -8.433594 C 13.859375 -9.128906 14.03125 -9.851562 14.230469 -10.558594 C 14.476562 -11.527344 14.941406 -12.628906 15.570312 -13.882812 C 16.199219 -15.132812 16.90625 -16.394531 17.683594 -17.695312 C 18.46875 -18.964844 19.261719 -20.160156 20.113281 -21.285156 C 20.945312 -22.378906 21.71875 -23.285156 22.417969 -23.96875 C 22.554688 -24.144531 22.660156 -24.339844 22.707031 -24.582031 C 22.761719 -24.796875 22.757812 -25.03125 22.699219 -25.285156 C 22.621094 -25.507812 22.492188 -25.703125 22.316406 -25.863281 C 22.140625 -26 21.894531 -26.097656 21.605469 -26.117188 C 21.539062 -26.003906 21.453125 -25.863281 21.34375 -25.691406 C 21.234375 -25.519531 21.105469 -25.296875 20.953125 -25.070312 C 20.597656 -24.554688 20.199219 -23.984375 19.726562 -23.351562 C 19.257812 -22.71875 18.769531 -22.03125 18.230469 -21.3125 C 17.9375 -20.9375 17.667969 -20.5625 17.398438 -20.21875 C 17.128906 -19.871094 16.882812 -19.527344 16.640625 -19.183594 C 16.097656 -18.488281 15.628906 -17.832031 15.207031 -17.257812 C 14.78125 -16.683594 14.445312 -16.222656 14.226562 -15.882812 C 13.5625 -14.914062 12.875 -13.941406 12.179688 -12.992188 C 11.464844 -12.042969 10.757812 -11.199219 10.035156 -10.484375 C 9.292969 -9.738281 8.605469 -9.183594 7.921875 -8.785156 C 7.242188 -8.386719 6.601562 -8.28125 6.011719 -8.417969 C 5.664062 -8.480469 5.425781 -8.710938 5.296875 -9.113281 C 5.148438 -9.488281 5.152344 -10.0625 5.324219 -10.8125 C 5.464844 -11.5625 5.746094 -12.460938 6.1875 -13.53125 C 6.628906 -14.605469 7.253906 -15.882812 8.066406 -17.339844 C 8.667969 -18.40625 8.996094 -19.335938 9.082031 -20.128906 C 9.164062 -20.921875 9.082031 -21.59375 8.832031 -22.136719 C 8.542969 -22.777344 8.09375 -23.246094 7.480469 -23.585938 C 6.863281 -23.929688 6.214844 -24.109375 5.550781 -24.183594 C 5.023438 -24.222656 4.507812 -24.160156 3.949219 -24.039062 C 3.390625 -23.917969 2.867188 -23.722656 2.324219 -23.445312 C 1.789062 -23.144531 1.257812 -22.792969 0.761719 -22.367188 C 0.242188 -21.9375 -0.21875 -21.433594 -0.621094 -20.890625 C -1.117188 -20.253906 -1.480469 -19.582031 -1.710938 -18.925781 C -1.941406 -18.246094 -2.042969 -17.605469 -2 -17.039062 C -1.976562 -16.441406 -1.757812 -15.917969 -1.390625 -15.496094 C -1.027344 -15.070312 -0.46875 -14.773438 0.28125 -14.628906 C 0.601562 -14.566406 0.996094 -14.5625 1.402344 -14.664062 C 1.804688 -14.765625 2.203125 -14.921875 2.589844 -15.175781 C 2.953125 -15.402344 3.28125 -15.707031 3.550781 -16.078125 C 3.816406 -16.449219 3.996094 -16.890625 4.066406 -17.394531 C 3.378906 -17.050781 2.863281 -16.984375 2.523438 -17.203125 C 2.1875 -17.371094 1.992188 -17.6875 1.9375 -18.125 C 1.886719 -18.5625 1.980469 -19.070312 2.222656 -19.648438 C 2.441406 -20.199219 2.738281 -20.730469 3.148438 -21.226562 C 3.5625 -21.695312 4.039062 -22.039062 4.617188 -22.242188 C 4.867188 -22.324219 5.148438 -22.359375 5.457031 -22.398438 C 5.746094 -22.40625 6.007812 -22.386719 6.277344 -22.316406 C 6.546875 -22.246094 6.773438 -22.117188 6.945312 -21.980469 C 7.121094 -21.820312 7.25 -21.628906 7.332031 -21.375 C 7.449219 -20.867188 7.394531 -20.261719 7.1875 -19.609375 C 6.980469 -18.957031 6.652344 -18.238281 6.195312 -17.476562 C 5.71875 -16.6875 5.257812 -15.976562 4.769531 -15.289062 C 4.28125 -14.601562 3.808594 -13.996094 3.375 -13.472656 C 3.148438 -13.183594 2.96875 -12.953125 2.808594 -12.773438 C 2.652344 -12.574219 2.539062 -12.429688 2.46875 -12.34375 C 2.109375 -11.878906 1.714844 -11.28125 1.277344 -10.601562 C 0.835938 -9.921875 0.433594 -9.167969 0.0898438 -8.367188 C -0.277344 -7.539062 -0.570312 -6.71875 -0.753906 -5.886719 C -0.960938 -5.023438 -0.992188 -4.238281 -0.851562 -3.523438 C -0.734375 -2.78125 -0.417969 -2.117188 0.0703125 -1.550781 C 0.558594 -0.984375 1.339844 -0.558594 2.414062 -0.324219 C 3.0625 -0.144531 3.75 -0.28125 4.460938 -0.679688 C 5.140625 -1.078125 5.824219 -1.683594 6.511719 -2.449219 C 7.175781 -3.210938 7.824219 -4.097656 8.429688 -5.113281 C 9.035156 -6.128906 9.609375 -7.191406 10.15625 -8.25 C 10.035156 -7.949219 9.917969 -7.648438 9.792969 -7.371094 C 9.675781 -7.070312 9.53125 -6.765625 9.386719 -6.460938 C 9.21875 -6.125 9.097656 -5.824219 9.03125 -5.527344 C 8.941406 -5.203125 8.871094 -4.90625 8.855469 -4.617188 L 8.859375 -4.59375 C 8.792969 -3.4375 9.050781 -2.605469 9.695312 -2.058594 C 9.964844 -1.777344 10.300781 -1.585938 10.679688 -1.476562 C 11.058594 -1.367188 11.484375 -1.3125 11.949219 -1.34375 Z M 11.949219 -1.34375 "/></g></g></g></g><g fill="#00c4cc" fill-opacity="1"><g transform="translate(61.16723, 23.882773)"><g><path d="M 5.261719 -1.171875 C 6.011719 -1.628906 6.59375 -2.222656 7.019531 -2.980469 C 7.425781 -3.710938 7.722656 -4.480469 7.9375 -5.289062 C 8.125 -6.09375 8.285156 -6.898438 8.394531 -7.722656 C 8.5 -8.542969 8.582031 -9.363281 8.636719 -10.203125 C 8.640625 -10.597656 8.667969 -10.992188 8.703125 -11.363281 C 8.707031 -11.726562 8.742188 -12.097656 8.773438 -12.46875 L 8.828125 -12.449219 C 9.042969 -12.605469 9.320312 -12.902344 9.6875 -13.3125 C 10.054688 -13.722656 10.386719 -14.207031 10.6875 -14.714844 C 10.882812 -15.050781 11.050781 -15.386719 11.191406 -15.714844 C 11.335938 -16.046875 11.429688 -16.347656 11.445312 -16.636719 C 11.464844 -16.898438 11.40625 -17.152344 11.277344 -17.347656 C 11.148438 -17.539062 10.921875 -17.695312 10.597656 -17.785156 C 10.332031 -17.828125 10.050781 -17.769531 9.761719 -17.578125 C 9.472656 -17.382812 9.214844 -17.144531 8.945312 -16.796875 C 8.648438 -16.445312 8.382812 -16.046875 8.125 -15.597656 C 7.867188 -15.148438 7.632812 -14.730469 7.453125 -14.289062 C 7.246094 -13.84375 7.066406 -13.40625 6.933594 -12.996094 C 6.800781 -12.589844 6.734375 -12.269531 6.714844 -12.003906 C 6.382812 -11.753906 6.011719 -11.578125 5.636719 -11.453125 C 5.238281 -11.300781 4.855469 -11.199219 4.472656 -11.128906 C 4.089844 -11.054688 3.730469 -11.007812 3.367188 -11.015625 C 3 -11.023438 2.660156 -11.035156 2.339844 -11.074219 C 2.480469 -10.777344 2.710938 -10.597656 3.015625 -10.476562 C 3.316406 -10.359375 3.660156 -10.320312 4.074219 -10.347656 C 4.464844 -10.34375 4.875 -10.417969 5.324219 -10.578125 C 5.753906 -10.710938 6.199219 -10.894531 6.667969 -11.109375 C 6.605469 -9.953125 6.488281 -8.972656 6.320312 -8.222656 C 6.152344 -7.46875 5.945312 -6.84375 5.6875 -6.367188 C 5.394531 -5.785156 5.027344 -5.375 4.589844 -5.109375 C 4.152344 -4.847656 3.75 -4.746094 3.378906 -4.777344 C 2.988281 -4.78125 2.683594 -4.902344 2.46875 -5.160156 C 2.257812 -5.394531 2.238281 -5.757812 2.390625 -6.222656 C 2.5 -6.601562 2.726562 -6.890625 3.011719 -7.109375 C 3.300781 -7.328125 3.585938 -7.335938 3.847656 -7.105469 C 3.980469 -7.304688 4.054688 -7.550781 4.019531 -7.832031 C 3.992188 -8.066406 3.886719 -8.285156 3.726562 -8.503906 C 3.546875 -8.6875 3.324219 -8.816406 3.046875 -8.941406 C 2.773438 -9.039062 2.460938 -9.050781 2.152344 -9.011719 C 1.460938 -8.902344 0.898438 -8.597656 0.4375 -8.097656 C -0.0234375 -7.59375 -0.367188 -7.003906 -0.601562 -6.347656 C -0.832031 -5.695312 -0.90625 -5.003906 -0.867188 -4.28125 C -0.855469 -3.550781 -0.691406 -2.863281 -0.410156 -2.273438 C -0.128906 -1.679688 0.273438 -1.183594 0.835938 -0.835938 C 1.378906 -0.457031 2.050781 -0.304688 2.878906 -0.382812 C 3.679688 -0.429688 4.480469 -0.710938 5.261719 -1.171875 Z M 8.863281 -13.445312 C 8.917969 -13.84375 8.972656 -14.242188 9.082031 -14.621094 C 9.191406 -15 9.328125 -15.382812 9.515625 -15.769531 L 9.519531 -15.71875 C 9.601562 -15.910156 9.707031 -16.109375 9.816406 -16.277344 C 9.902344 -16.445312 10.015625 -16.589844 10.125 -16.757812 C 10.304688 -16.992188 10.472656 -17.117188 10.601562 -17.132812 C 10.707031 -17.09375 10.746094 -16.992188 10.765625 -16.839844 C 10.753906 -16.734375 10.738281 -16.652344 10.75 -16.550781 C 10.738281 -16.445312 10.722656 -16.335938 10.710938 -16.230469 C 10.636719 -15.988281 10.585938 -15.773438 10.507812 -15.554688 C 10.429688 -15.335938 10.371094 -15.171875 10.328125 -15.089844 C 10.011719 -14.5 9.53125 -13.945312 8.863281 -13.445312 Z M 8.863281 -13.445312 "/></g></g></g><g fill="#00c4cc" fill-opacity="1"><g transform="translate(69.366888, 22.870046)"><g><path d="M 8.175781 -1.246094 L 8.082031 -1.15625 C 8.800781 -1.242188 9.496094 -1.539062 10.1875 -2.066406 C 10.859375 -2.566406 11.511719 -3.195312 12.101562 -3.921875 C 12.667969 -4.621094 13.171875 -5.386719 13.648438 -6.175781 C 14.125 -6.96875 14.503906 -7.71875 14.789062 -8.378906 C 14.742188 -8.320312 14.695312 -8.289062 14.625 -8.230469 C 14.554688 -8.167969 14.484375 -8.082031 14.390625 -7.992188 C 14.1875 -7.757812 13.953125 -7.519531 13.695312 -7.277344 C 13.441406 -7.011719 13.164062 -6.742188 12.855469 -6.46875 C 12.203125 -5.839844 11.660156 -5.382812 11.171875 -5.113281 C 10.929688 -4.953125 10.726562 -4.902344 10.589844 -4.9375 C 10.457031 -4.972656 10.410156 -5.125 10.457031 -5.390625 C 10.476562 -5.65625 10.65625 -6.09375 10.953125 -6.652344 L 15.613281 -15.660156 L 11.984375 -15.214844 L 10.632812 -12.644531 C 10.566406 -13.160156 10.441406 -13.5625 10.214844 -13.898438 C 9.996094 -14.210938 9.730469 -14.441406 9.398438 -14.605469 C 9.039062 -14.746094 8.640625 -14.800781 8.222656 -14.800781 C 7.808594 -14.777344 7.351562 -14.667969 6.902344 -14.507812 C 6.554688 -14.359375 6.164062 -14.15625 5.757812 -13.84375 C 5.351562 -13.535156 4.949219 -13.195312 4.53125 -12.777344 C 4.113281 -12.363281 3.675781 -11.890625 3.242188 -11.367188 C 2.8125 -10.84375 2.40625 -10.324219 2.007812 -9.753906 C 1.515625 -9.066406 1.078125 -8.382812 0.695312 -7.683594 C 0.289062 -6.953125 -0.0429688 -6.261719 -0.324219 -5.574219 C -0.523438 -5.078125 -0.6875 -4.511719 -0.765625 -3.875 C -0.84375 -3.238281 -0.851562 -2.664062 -0.734375 -2.128906 C -0.636719 -1.566406 -0.425781 -1.121094 -0.121094 -0.769531 C 0.183594 -0.414062 0.644531 -0.261719 1.289062 -0.34375 C 2.164062 -0.449219 3.066406 -0.746094 3.941406 -1.269531 C 4.355469 -1.503906 4.742188 -1.785156 5.09375 -2.089844 C 5.449219 -2.394531 5.746094 -2.746094 5.960938 -3.113281 C 5.980469 -2.515625 6.195312 -2.042969 6.609375 -1.675781 C 6.992188 -1.308594 7.507812 -1.164062 8.175781 -1.246094 Z M 3.476562 -3.980469 C 3.230469 -4.082031 3.050781 -4.265625 2.933594 -4.566406 C 2.820312 -4.867188 2.824219 -5.257812 2.917969 -5.765625 C 2.988281 -6.242188 3.179688 -6.816406 3.507812 -7.535156 C 3.839844 -8.230469 4.3125 -9.042969 4.929688 -9.980469 C 5.191406 -10.378906 5.457031 -10.777344 5.773438 -11.183594 C 6.0625 -11.585938 6.382812 -11.9375 6.707031 -12.289062 C 7.007812 -12.613281 7.335938 -12.890625 7.703125 -13.09375 C 8.046875 -13.292969 8.425781 -13.390625 8.835938 -13.441406 C 9.070312 -13.445312 9.261719 -13.390625 9.40625 -13.277344 C 9.527344 -13.136719 9.625 -12.964844 9.707031 -12.738281 C 9.761719 -12.511719 9.792969 -12.253906 9.777344 -11.9375 C 9.765625 -11.625 9.753906 -11.308594 9.691406 -10.960938 L 9.714844 -10.964844 L 7.5 -6.929688 C 7.332031 -6.597656 7.089844 -6.226562 6.824219 -5.828125 C 6.535156 -5.429688 6.21875 -5.050781 5.867188 -4.71875 C 5.492188 -4.359375 5.105469 -4.101562 4.707031 -3.949219 C 4.285156 -3.765625 3.867188 -3.769531 3.476562 -3.980469 Z M 3.476562 -3.980469 "/></g></g></g><g clip-path="url(#id2)"><g fill="#00c4cc" fill-opacity="1"><g transform="translate(82.656854, 21.228622)"><g><path d="M 7.441406 -15.855469 C 7.714844 -15.757812 8.085938 -15.90625 8.507812 -16.300781 C 8.695312 -16.480469 8.902344 -16.714844 9.074219 -16.996094 C 9.25 -17.277344 9.425781 -17.5625 9.566406 -17.890625 C 9.707031 -18.222656 9.828125 -18.523438 9.917969 -18.847656 C 9.980469 -19.171875 10.050781 -19.464844 10.066406 -19.753906 C 10.078125 -20.304688 9.933594 -20.625 9.660156 -20.722656 C 9.359375 -20.816406 9.015625 -20.667969 8.59375 -20.277344 C 8.171875 -19.859375 7.824219 -19.320312 7.511719 -18.65625 L 7.511719 -18.683594 C 7.34375 -18.347656 7.226562 -18.019531 7.160156 -17.699219 C 7.070312 -17.375 7.027344 -17.082031 7.03125 -16.847656 C 7.011719 -16.585938 7.039062 -16.351562 7.113281 -16.179688 C 7.1875 -16.003906 7.28125 -15.886719 7.441406 -15.855469 Z M 0.371094 -0.175781 C 0.800781 -0.0742188 1.316406 -0.109375 1.972656 -0.296875 C 2.628906 -0.480469 3.316406 -0.851562 4.058594 -1.390625 C 4.777344 -1.894531 5.53125 -2.5625 6.261719 -3.410156 C 6.996094 -4.230469 7.707031 -5.261719 8.34375 -6.433594 C 8.160156 -6.230469 7.929688 -5.992188 7.625 -5.695312 C 7.296875 -5.390625 6.964844 -5.117188 6.605469 -4.863281 C 6.222656 -4.582031 5.859375 -4.351562 5.492188 -4.152344 C 5.101562 -3.945312 4.777344 -3.828125 4.515625 -3.820312 C 4.105469 -3.769531 3.851562 -3.894531 3.816406 -4.203125 C 3.78125 -4.488281 3.816406 -4.832031 3.972656 -5.242188 C 4.109375 -5.625 4.273438 -5.984375 4.488281 -6.375 C 4.671875 -6.765625 4.824219 -7.019531 4.910156 -7.1875 L 8.984375 -14.765625 L 5.359375 -14.316406 L 0.277344 -5.152344 C -0.148438 -4.367188 -0.453125 -3.675781 -0.617188 -3.109375 C -0.78125 -2.515625 -0.851562 -2.035156 -0.804688 -1.648438 C -0.777344 -1.234375 -0.65625 -0.886719 -0.445312 -0.648438 C -0.234375 -0.414062 0.046875 -0.242188 0.371094 -0.175781 Z M 0.371094 -0.175781 "/></g></g></g></g><g clip-path="url(#id3)"><g fill="#000000" fill-opacity="1"><g transform="translate(46.808289, 25.308018)"><g><path d="M 11.949219 -1.34375 C 12.730469 -1.363281 13.5625 -1.597656 14.417969 -2.066406 C 15.226562 -2.507812 15.929688 -3.140625 16.554688 -4.003906 C 15.648438 -4.152344 14.957031 -4.457031 14.539062 -4.902344 C 14.117188 -5.347656 13.84375 -5.886719 13.742188 -6.5 C 13.617188 -7.085938 13.613281 -7.738281 13.738281 -8.433594 C 13.859375 -9.128906 14.03125 -9.851562 14.230469 -10.558594 C 14.476562 -11.527344 14.941406 -12.628906 15.570312 -13.882812 C 16.199219 -15.132812 16.90625 -16.394531 17.683594 -17.695312 C 18.46875 -18.964844 19.261719 -20.160156 20.113281 -21.285156 C 20.945312 -22.378906 21.71875 -23.285156 22.417969 -23.96875 C 22.554688 -24.144531 22.660156 -24.339844 22.707031 -24.582031 C 22.761719 -24.796875 22.757812 -25.03125 22.699219 -25.285156 C 22.621094 -25.507812 22.492188 -25.703125 22.316406 -25.863281 C 22.140625 -26 21.894531 -26.097656 21.605469 -26.117188 C 21.539062 -26.003906 21.453125 -25.863281 21.34375 -25.691406 C 21.234375 -25.519531 21.105469 -25.296875 20.953125 -25.070312 C 20.597656 -24.554688 20.199219 -23.984375 19.726562 -23.351562 C 19.257812 -22.71875 18.769531 -22.03125 18.230469 -21.3125 C 17.9375 -20.9375 17.667969 -20.5625 17.398438 -20.21875 C 17.128906 -19.871094 16.882812 -19.527344 16.640625 -19.183594 C 16.097656 -18.488281 15.628906 -17.832031 15.207031 -17.257812 C 14.78125 -16.683594 14.445312 -16.222656 14.226562 -15.882812 C 13.5625 -14.914062 12.875 -13.941406 12.179688 -12.992188 C 11.464844 -12.042969 10.757812 -11.199219 10.035156 -10.484375 C 9.292969 -9.738281 8.605469 -9.183594 7.921875 -8.785156 C 7.242188 -8.386719 6.601562 -8.28125 6.011719 -8.417969 C 5.664062 -8.480469 5.425781 -8.710938 5.296875 -9.113281 C 5.148438 -9.488281 5.152344 -10.0625 5.324219 -10.8125 C 5.464844 -11.5625 5.746094 -12.460938 6.1875 -13.53125 C 6.628906 -14.605469 7.253906 -15.882812 8.066406 -17.339844 C 8.667969 -18.40625 8.996094 -19.335938 9.082031 -20.128906 C 9.164062 -20.921875 9.082031 -21.59375 8.832031 -22.136719 C 8.542969 -22.777344 8.09375 -23.246094 7.480469 -23.585938 C 6.863281 -23.929688 6.214844 -24.109375 5.550781 -24.183594 C 5.023438 -24.222656 4.507812 -24.160156 3.949219 -24.039062 C 3.390625 -23.917969 2.867188 -23.722656 2.324219 -23.445312 C 1.789062 -23.144531 1.257812 -22.792969 0.761719 -22.367188 C 0.242188 -21.9375 -0.21875 -21.433594 -0.621094 -20.890625 C -1.117188 -20.253906 -1.480469 -19.582031 -1.710938 -18.925781 C -1.941406 -18.246094 -2.042969 -17.605469 -2 -17.039062 C -1.976562 -16.441406 -1.757812 -15.917969 -1.390625 -15.496094 C -1.027344 -15.070312 -0.46875 -14.773438 0.28125 -14.628906 C 0.601562 -14.566406 0.996094 -14.5625 1.402344 -14.664062 C 1.804688 -14.765625 2.203125 -14.921875 2.589844 -15.175781 C 2.953125 -15.402344 3.28125 -15.707031 3.550781 -16.078125 C 3.816406 -16.449219 3.996094 -16.890625 4.066406 -17.394531 C 3.378906 -17.050781 2.863281 -16.984375 2.523438 -17.203125 C 2.1875 -17.371094 1.992188 -17.6875 1.9375 -18.125 C 1.886719 -18.5625 1.980469 -19.070312 2.222656 -19.648438 C 2.441406 -20.199219 2.738281 -20.730469 3.148438 -21.226562 C 3.5625 -21.695312 4.039062 -22.039062 4.617188 -22.242188 C 4.867188 -22.324219 5.148438 -22.359375 5.457031 -22.398438 C 5.746094 -22.40625 6.007812 -22.386719 6.277344 -22.316406 C 6.546875 -22.246094 6.773438 -22.117188 6.945312 -21.980469 C 7.121094 -21.820312 7.25 -21.628906 7.332031 -21.375 C 7.449219 -20.867188 7.394531 -20.261719 7.1875 -19.609375 C 6.980469 -18.957031 6.652344 -18.238281 6.195312 -17.476562 C 5.71875 -16.6875 5.257812 -15.976562 4.769531 -15.289062 C 4.28125 -14.601562 3.808594 -13.996094 3.375 -13.472656 C 3.148438 -13.183594 2.96875 -12.953125 2.808594 -12.773438 C 2.652344 -12.574219 2.539062 -12.429688 2.46875 -12.34375 C 2.109375 -11.878906 1.714844 -11.28125 1.277344 -10.601562 C 0.835938 -9.921875 0.433594 -9.167969 0.0898438 -8.367188 C -0.277344 -7.539062 -0.570312 -6.71875 -0.753906 -5.886719 C -0.960938 -5.023438 -0.992188 -4.238281 -0.851562 -3.523438 C -0.734375 -2.78125 -0.417969 -2.117188 0.0703125 -1.550781 C 0.558594 -0.984375 1.339844 -0.558594 2.414062 -0.324219 C 3.0625 -0.144531 3.75 -0.28125 4.460938 -0.679688 C 5.140625 -1.078125 5.824219 -1.683594 6.511719 -2.449219 C 7.175781 -3.210938 7.824219 -4.097656 8.429688 -5.113281 C 9.035156 -6.128906 9.609375 -7.191406 10.15625 -8.25 C 10.035156 -7.949219 9.917969 -7.648438 9.792969 -7.371094 C 9.675781 -7.070312 9.53125 -6.765625 9.386719 -6.460938 C 9.21875 -6.125 9.097656 -5.824219 9.03125 -5.527344 C 8.941406 -5.203125 8.871094 -4.90625 8.855469 -4.617188 L 8.859375 -4.59375 C 8.792969 -3.4375 9.050781 -2.605469 9.695312 -2.058594 C 9.964844 -1.777344 10.300781 -1.585938 10.679688 -1.476562 C 11.058594 -1.367188 11.484375 -1.3125 11.949219 -1.34375 Z M 11.949219 -1.34375 "/></g></g></g></g><g fill="#000000" fill-opacity="1"><g transform="translate(61.743611, 23.46338)"><g><path d="M 5.261719 -1.171875 C 6.011719 -1.628906 6.59375 -2.222656 7.019531 -2.980469 C 7.425781 -3.710938 7.722656 -4.480469 7.9375 -5.289062 C 8.125 -6.09375 8.285156 -6.898438 8.394531 -7.722656 C 8.5 -8.542969 8.582031 -9.363281 8.636719 -10.203125 C 8.640625 -10.597656 8.667969 -10.992188 8.703125 -11.363281 C 8.707031 -11.726562 8.742188 -12.097656 8.773438 -12.46875 L 8.828125 -12.449219 C 9.042969 -12.605469 9.320312 -12.902344 9.6875 -13.3125 C 10.054688 -13.722656 10.386719 -14.207031 10.6875 -14.714844 C 10.882812 -15.050781 11.050781 -15.386719 11.191406 -15.714844 C 11.335938 -16.046875 11.429688 -16.347656 11.445312 -16.636719 C 11.464844 -16.898438 11.40625 -17.152344 11.277344 -17.347656 C 11.148438 -17.539062 10.921875 -17.695312 10.597656 -17.785156 C 10.332031 -17.828125 10.050781 -17.769531 9.761719 -17.578125 C 9.472656 -17.382812 9.214844 -17.144531 8.945312 -16.796875 C 8.648438 -16.445312 8.382812 -16.046875 8.125 -15.597656 C 7.867188 -15.148438 7.632812 -14.730469 7.453125 -14.289062 C 7.246094 -13.84375 7.066406 -13.40625 6.933594 -12.996094 C 6.800781 -12.589844 6.734375 -12.269531 6.714844 -12.003906 C 6.382812 -11.753906 6.011719 -11.578125 5.636719 -11.453125 C 5.238281 -11.300781 4.855469 -11.199219 4.472656 -11.128906 C 4.089844 -11.054688 3.730469 -11.007812 3.367188 -11.015625 C 3 -11.023438 2.660156 -11.035156 2.339844 -11.074219 C 2.480469 -10.777344 2.710938 -10.597656 3.015625 -10.476562 C 3.316406 -10.359375 3.660156 -10.320312 4.074219 -10.347656 C 4.464844 -10.34375 4.875 -10.417969 5.324219 -10.578125 C 5.753906 -10.710938 6.199219 -10.894531 6.667969 -11.109375 C 6.605469 -9.953125 6.488281 -8.972656 6.320312 -8.222656 C 6.152344 -7.46875 5.945312 -6.84375 5.6875 -6.367188 C 5.394531 -5.785156 5.027344 -5.375 4.589844 -5.109375 C 4.152344 -4.847656 3.75 -4.746094 3.378906 -4.777344 C 2.988281 -4.78125 2.683594 -4.902344 2.46875 -5.160156 C 2.257812 -5.394531 2.238281 -5.757812 2.390625 -6.222656 C 2.5 -6.601562 2.726562 -6.890625 3.011719 -7.109375 C 3.300781 -7.328125 3.585938 -7.335938 3.847656 -7.105469 C 3.980469 -7.304688 4.054688 -7.550781 4.019531 -7.832031 C 3.992188 -8.066406 3.886719 -8.285156 3.726562 -8.503906 C 3.546875 -8.6875 3.324219 -8.816406 3.046875 -8.941406 C 2.773438 -9.039062 2.460938 -9.050781 2.152344 -9.011719 C 1.460938 -8.902344 0.898438 -8.597656 0.4375 -8.097656 C -0.0234375 -7.59375 -0.367188 -7.003906 -0.601562 -6.347656 C -0.832031 -5.695312 -0.90625 -5.003906 -0.867188 -4.28125 C -0.855469 -3.550781 -0.691406 -2.863281 -0.410156 -2.273438 C -0.128906 -1.679688 0.273438 -1.183594 0.835938 -0.835938 C 1.378906 -0.457031 2.050781 -0.304688 2.878906 -0.382812 C 3.679688 -0.429688 4.480469 -0.710938 5.261719 -1.171875 Z M 8.863281 -13.445312 C 8.917969 -13.84375 8.972656 -14.242188 9.082031 -14.621094 C 9.191406 -15 9.328125 -15.382812 9.515625 -15.769531 L 9.519531 -15.71875 C 9.601562 -15.910156 9.707031 -16.109375 9.816406 -16.277344 C 9.902344 -16.445312 10.015625 -16.589844 10.125 -16.757812 C 10.304688 -16.992188 10.472656 -17.117188 10.601562 -17.132812 C 10.707031 -17.09375 10.746094 -16.992188 10.765625 -16.839844 C 10.753906 -16.734375 10.738281 -16.652344 10.75 -16.550781 C 10.738281 -16.445312 10.722656 -16.335938 10.710938 -16.230469 C 10.636719 -15.988281 10.585938 -15.773438 10.507812 -15.554688 C 10.429688 -15.335938 10.371094 -15.171875 10.328125 -15.089844 C 10.011719 -14.5 9.53125 -13.945312 8.863281 -13.445312 Z M 8.863281 -13.445312 "/></g></g></g><g fill="#000000" fill-opacity="1"><g transform="translate(69.943268, 22.450653)"><g><path d="M 8.175781 -1.246094 L 8.082031 -1.15625 C 8.800781 -1.242188 9.496094 -1.539062 10.1875 -2.066406 C 10.859375 -2.566406 11.511719 -3.195312 12.101562 -3.921875 C 12.667969 -4.621094 13.171875 -5.386719 13.648438 -6.175781 C 14.125 -6.96875 14.503906 -7.71875 14.789062 -8.378906 C 14.742188 -8.320312 14.695312 -8.289062 14.625 -8.230469 C 14.554688 -8.167969 14.484375 -8.082031 14.390625 -7.992188 C 14.1875 -7.757812 13.953125 -7.519531 13.695312 -7.277344 C 13.441406 -7.011719 13.164062 -6.742188 12.855469 -6.46875 C 12.203125 -5.839844 11.660156 -5.382812 11.171875 -5.113281 C 10.929688 -4.953125 10.726562 -4.902344 10.589844 -4.9375 C 10.457031 -4.972656 10.410156 -5.125 10.457031 -5.390625 C 10.476562 -5.65625 10.65625 -6.09375 10.953125 -6.652344 L 15.613281 -15.660156 L 11.984375 -15.214844 L 10.632812 -12.644531 C 10.566406 -13.160156 10.441406 -13.5625 10.214844 -13.898438 C 9.996094 -14.210938 9.730469 -14.441406 9.398438 -14.605469 C 9.039062 -14.746094 8.640625 -14.800781 8.222656 -14.800781 C 7.808594 -14.777344 7.351562 -14.667969 6.902344 -14.507812 C 6.554688 -14.359375 6.164062 -14.15625 5.757812 -13.84375 C 5.351562 -13.535156 4.949219 -13.195312 4.53125 -12.777344 C 4.113281 -12.363281 3.675781 -11.890625 3.242188 -11.367188 C 2.8125 -10.84375 2.40625 -10.324219 2.007812 -9.753906 C 1.515625 -9.066406 1.078125 -8.382812 0.695312 -7.683594 C 0.289062 -6.953125 -0.0429688 -6.261719 -0.324219 -5.574219 C -0.523438 -5.078125 -0.6875 -4.511719 -0.765625 -3.875 C -0.84375 -3.238281 -0.851562 -2.664062 -0.734375 -2.128906 C -0.636719 -1.566406 -0.425781 -1.121094 -0.121094 -0.769531 C 0.183594 -0.414062 0.644531 -0.261719 1.289062 -0.34375 C 2.164062 -0.449219 3.066406 -0.746094 3.941406 -1.269531 C 4.355469 -1.503906 4.742188 -1.785156 5.09375 -2.089844 C 5.449219 -2.394531 5.746094 -2.746094 5.960938 -3.113281 C 5.980469 -2.515625 6.195312 -2.042969 6.609375 -1.675781 C 6.992188 -1.308594 7.507812 -1.164062 8.175781 -1.246094 Z M 3.476562 -3.980469 C 3.230469 -4.082031 3.050781 -4.265625 2.933594 -4.566406 C 2.820312 -4.867188 2.824219 -5.257812 2.917969 -5.765625 C 2.988281 -6.242188 3.179688 -6.816406 3.507812 -7.535156 C 3.839844 -8.230469 4.3125 -9.042969 4.929688 -9.980469 C 5.191406 -10.378906 5.457031 -10.777344 5.773438 -11.183594 C 6.0625 -11.585938 6.382812 -11.9375 6.707031 -12.289062 C 7.007812 -12.613281 7.335938 -12.890625 7.703125 -13.09375 C 8.046875 -13.292969 8.425781 -13.390625 8.835938 -13.441406 C 9.070312 -13.445312 9.261719 -13.390625 9.40625 -13.277344 C 9.527344 -13.136719 9.625 -12.964844 9.707031 -12.738281 C 9.761719 -12.511719 9.792969 -12.253906 9.777344 -11.9375 C 9.765625 -11.625 9.753906 -11.308594 9.691406 -10.960938 L 9.714844 -10.964844 L 7.5 -6.929688 C 7.332031 -6.597656 7.089844 -6.226562 6.824219 -5.828125 C 6.535156 -5.429688 6.21875 -5.050781 5.867188 -4.71875 C 5.492188 -4.359375 5.105469 -4.101562 4.707031 -3.949219 C 4.285156 -3.765625 3.867188 -3.769531 3.476562 -3.980469 Z M 3.476562 -3.980469 "/></g></g></g><g clip-path="url(#id4)"><g fill="#000000" fill-opacity="1"><g transform="translate(83.233235, 20.80923)"><g><path d="M 7.441406 -15.855469 C 7.714844 -15.757812 8.085938 -15.90625 8.507812 -16.300781 C 8.695312 -16.480469 8.902344 -16.714844 9.074219 -16.996094 C 9.25 -17.277344 9.425781 -17.5625 9.566406 -17.890625 C 9.707031 -18.222656 9.828125 -18.523438 9.917969 -18.847656 C 9.980469 -19.171875 10.050781 -19.464844 10.066406 -19.753906 C 10.078125 -20.304688 9.933594 -20.625 9.660156 -20.722656 C 9.359375 -20.816406 9.015625 -20.667969 8.59375 -20.277344 C 8.171875 -19.859375 7.824219 -19.320312 7.511719 -18.65625 L 7.511719 -18.683594 C 7.34375 -18.347656 7.226562 -18.019531 7.160156 -17.699219 C 7.070312 -17.375 7.027344 -17.082031 7.03125 -16.847656 C 7.011719 -16.585938 7.039062 -16.351562 7.113281 -16.179688 C 7.1875 -16.003906 7.28125 -15.886719 7.441406 -15.855469 Z M 0.371094 -0.175781 C 0.800781 -0.0742188 1.316406 -0.109375 1.972656 -0.296875 C 2.628906 -0.480469 3.316406 -0.851562 4.058594 -1.390625 C 4.777344 -1.894531 5.53125 -2.5625 6.261719 -3.410156 C 6.996094 -4.230469 7.707031 -5.261719 8.34375 -6.433594 C 8.160156 -6.230469 7.929688 -5.992188 7.625 -5.695312 C 7.296875 -5.390625 6.964844 -5.117188 6.605469 -4.863281 C 6.222656 -4.582031 5.859375 -4.351562 5.492188 -4.152344 C 5.101562 -3.945312 4.777344 -3.828125 4.515625 -3.820312 C 4.105469 -3.769531 3.851562 -3.894531 3.816406 -4.203125 C 3.78125 -4.488281 3.816406 -4.832031 3.972656 -5.242188 C 4.109375 -5.625 4.273438 -5.984375 4.488281 -6.375 C 4.671875 -6.765625 4.824219 -7.019531 4.910156 -7.1875 L 8.984375 -14.765625 L 5.359375 -14.316406 L 0.277344 -5.152344 C -0.148438 -4.367188 -0.453125 -3.675781 -0.617188 -3.109375 C -0.78125 -2.515625 -0.851562 -2.035156 -0.804688 -1.648438 C -0.777344 -1.234375 -0.65625 -0.886719 -0.445312 -0.648438 C -0.234375 -0.414062 0.046875 -0.242188 0.371094 -0.175781 Z M 0.371094 -0.175781 "/></g></g></g></g><g clip-path="url(#id5)"><g fill="#ff914d" fill-opacity="1"><g transform="translate(46.106901, 44.582233)"><g><path d="M 23.480469 -26.371094 C 22.816406 -26.65625 22.066406 -26.824219 21.273438 -26.910156 C 20.453125 -26.992188 19.617188 -26.992188 18.738281 -26.910156 C 17.863281 -26.828125 16.96875 -26.664062 16.082031 -26.425781 C 15.203125 -26.160156 14.378906 -25.847656 13.613281 -25.492188 C 12.65625 -25.011719 11.886719 -24.472656 11.308594 -23.878906 C 10.726562 -23.285156 10.335938 -22.660156 10.097656 -22.03125 C 9.867188 -21.375 9.757812 -20.761719 9.835938 -20.144531 C 9.914062 -19.527344 10.109375 -19.003906 10.449219 -18.550781 C 10.792969 -18.097656 11.253906 -17.761719 11.855469 -17.523438 C 12.433594 -17.28125 13.121094 -17.207031 13.921875 -17.308594 C 13.402344 -17.894531 13.070312 -18.480469 12.941406 -19.09375 C 12.792969 -19.675781 12.800781 -20.25 12.964844 -20.816406 C 13.128906 -21.386719 13.429688 -21.921875 13.886719 -22.445312 C 14.34375 -22.972656 14.914062 -23.433594 15.589844 -23.882812 C 16.195312 -24.246094 16.835938 -24.558594 17.507812 -24.824219 C 18.183594 -25.066406 18.867188 -25.253906 19.53125 -25.363281 C 20.660156 -25.527344 21.554688 -25.480469 22.210938 -25.222656 C 22.875 -24.941406 23.3125 -24.550781 23.558594 -24.03125 C 23.785156 -23.484375 23.832031 -22.890625 23.683594 -22.195312 C 23.507812 -21.492188 23.171875 -20.824219 22.65625 -20.136719 C 22.117188 -19.441406 21.441406 -18.785156 20.597656 -18.210938 C 19.753906 -17.636719 18.792969 -17.175781 17.679688 -16.882812 C 18.125 -16.859375 18.523438 -16.804688 18.847656 -16.742188 C 19.171875 -16.648438 19.425781 -16.5 19.609375 -16.261719 C 19.796875 -16.023438 19.886719 -15.71875 19.910156 -15.304688 C 19.9375 -14.890625 19.871094 -14.359375 19.714844 -13.714844 C 19.535156 -12.855469 19.253906 -11.960938 18.867188 -11.078125 C 18.453125 -10.191406 18.09375 -9.308594 17.78125 -8.460938 C 17.46875 -7.589844 17.257812 -6.777344 17.148438 -5.980469 C 17.035156 -5.183594 17.207031 -4.449219 17.628906 -3.769531 C 17.894531 -3.308594 18.246094 -2.984375 18.71875 -2.78125 C 19.160156 -2.574219 19.664062 -2.507812 20.207031 -2.546875 C 20.726562 -2.585938 21.28125 -2.734375 21.851562 -2.984375 C 22.421875 -3.214844 22.953125 -3.566406 23.425781 -3.988281 C 23.917969 -4.441406 24.34375 -4.992188 24.734375 -5.640625 C 25.097656 -6.285156 25.34375 -7.046875 25.449219 -7.894531 L 23.851562 -6.652344 C 23.253906 -6.421875 22.761719 -6.386719 22.375 -6.574219 C 21.960938 -6.734375 21.675781 -7.140625 21.550781 -7.753906 C 21.410156 -8.257812 21.367188 -8.800781 21.429688 -9.355469 C 21.496094 -9.886719 21.582031 -10.445312 21.722656 -10.984375 C 21.839844 -11.523438 21.957031 -12.058594 22.074219 -12.597656 C 22.191406 -13.132812 22.257812 -13.636719 22.253906 -14.105469 C 22.246094 -14.574219 22.164062 -15.035156 21.953125 -15.480469 C 21.746094 -15.898438 21.410156 -16.273438 20.898438 -16.628906 L 20.867188 -16.652344 C 21.699219 -16.882812 22.488281 -17.269531 23.257812 -17.808594 C 23.617188 -18.0625 23.949219 -18.335938 24.253906 -18.636719 C 24.527344 -18.929688 24.773438 -19.273438 24.96875 -19.613281 C 25.4375 -20.453125 25.757812 -21.25 25.878906 -21.96875 C 25.996094 -22.6875 25.996094 -23.339844 25.847656 -23.898438 C 25.675781 -24.449219 25.40625 -24.941406 24.988281 -25.359375 C 24.570312 -25.777344 24.085938 -26.109375 23.480469 -26.371094 Z M 18.269531 -18.863281 C 18.960938 -20.042969 19.691406 -21.101562 20.410156 -22.050781 C 21.128906 -23 21.867188 -23.773438 22.609375 -24.332031 C 21.929688 -24.117188 21.246094 -23.746094 20.582031 -23.195312 C 19.917969 -22.644531 19.238281 -22.011719 18.578125 -21.25 C 17.886719 -20.488281 17.183594 -19.640625 16.511719 -18.722656 C 15.84375 -17.804688 15.167969 -16.914062 14.5 -15.996094 C 13.804688 -15.074219 13.101562 -14.203125 12.394531 -13.386719 C 11.660156 -12.5625 11.027344 -11.78125 10.4375 -11.054688 C 9.441406 -9.808594 8.476562 -8.957031 7.515625 -8.472656 C 6.558594 -7.992188 5.738281 -7.863281 5.039062 -8.039062 C 4.609375 -8.140625 4.269531 -8.335938 3.972656 -8.636719 C 3.675781 -8.914062 3.472656 -9.304688 3.355469 -9.8125 C 3.21875 -10.292969 3.175781 -10.863281 3.25 -11.523438 C 3.300781 -12.15625 3.472656 -12.910156 3.761719 -13.726562 C 3.136719 -13.285156 2.546875 -12.769531 2.015625 -12.234375 C 1.480469 -11.699219 1.027344 -11.121094 0.636719 -10.496094 C 0.242188 -9.875 -0.09375 -9.207031 -0.320312 -8.523438 C -0.546875 -7.816406 -0.671875 -7.125 -0.691406 -6.441406 C -0.738281 -5.546875 -0.636719 -4.726562 -0.359375 -3.976562 C -0.0859375 -3.226562 0.335938 -2.574219 0.867188 -2.066406 C 1.402344 -1.558594 2.074219 -1.171875 2.863281 -0.929688 C 3.625 -0.683594 4.492188 -0.632812 5.441406 -0.75 C 6.164062 -0.839844 6.875 -1.1875 7.636719 -1.804688 C 8.324219 -2.359375 8.992188 -3.09375 9.664062 -3.988281 C 10.335938 -4.878906 11.019531 -5.902344 11.714844 -7.035156 C 12.414062 -8.164062 13.117188 -9.425781 13.835938 -10.796875 C 14.558594 -12.136719 15.34375 -13.59375 16.152344 -15.101562 C 16.488281 -15.746094 16.851562 -16.390625 17.195312 -17.007812 C 17.535156 -17.625 17.902344 -18.242188 18.269531 -18.863281 Z M 18.269531 -18.863281 "/></g></g></g></g><g fill="#ff914d" fill-opacity="1"><g transform="translate(70.605831, 41.556408)"><g><path d="M 1.757812 -0.347656 C 2.394531 -0.269531 3.011719 -0.347656 3.636719 -0.578125 C 4.261719 -0.8125 4.875 -1.125 5.472656 -1.5625 C 6.046875 -1.972656 6.589844 -2.457031 7.125 -2.996094 C 7.65625 -3.53125 8.160156 -4.113281 8.605469 -4.746094 C 9.027344 -5.34375 9.417969 -5.96875 9.785156 -6.585938 C 10.128906 -7.203125 10.425781 -7.761719 10.671875 -8.316406 C 9.644531 -6.882812 8.675781 -5.851562 7.816406 -5.222656 C 6.953125 -4.59375 6.207031 -4.292969 5.601562 -4.320312 C 4.976562 -4.320312 4.570312 -4.636719 4.335938 -5.289062 C 4.101562 -5.910156 4.121094 -6.800781 4.398438 -7.933594 C 4.46875 -8.203125 4.542969 -8.472656 4.613281 -8.742188 C 4.6875 -8.984375 4.785156 -9.234375 4.886719 -9.480469 C 4.847656 -8.953125 4.96875 -8.601562 5.226562 -8.425781 C 5.457031 -8.246094 5.78125 -8.15625 6.167969 -8.203125 L 6.097656 -8.117188 C 6.824219 -8.152344 7.519531 -8.449219 8.136719 -8.96875 C 8.753906 -9.460938 9.226562 -10.070312 9.609375 -10.769531 C 9.757812 -11.046875 9.894531 -11.429688 10.042969 -11.917969 C 10.191406 -12.40625 10.265625 -12.859375 10.261719 -13.328125 C 10.257812 -13.773438 10.132812 -14.148438 9.9375 -14.464844 C 9.71875 -14.75 9.335938 -14.886719 8.816406 -14.875 C 7.9375 -14.792969 7.085938 -14.503906 6.308594 -14.042969 C 5.527344 -13.582031 4.789062 -13.019531 4.140625 -12.363281 C 3.464844 -11.679688 2.875 -10.957031 2.34375 -10.183594 C 1.816406 -9.390625 1.410156 -8.660156 1.074219 -7.992188 C 0.59375 -7.042969 0.210938 -6.109375 -0.0390625 -5.191406 C -0.316406 -4.269531 -0.398438 -3.449219 -0.285156 -2.734375 C -0.183594 -1.910156 0.0742188 -1.316406 0.433594 -0.941406 C 0.792969 -0.566406 1.230469 -0.386719 1.757812 -0.347656 Z M 5.855469 -9.46875 C 5.519531 -9.429688 5.316406 -9.585938 5.253906 -9.890625 C 5.164062 -10.195312 5.320312 -10.605469 5.695312 -11.171875 C 6.195312 -11.992188 6.722656 -12.578125 7.28125 -12.9375 C 7.8125 -13.261719 8.285156 -13.476562 8.664062 -13.578125 L 8.6875 -13.578125 C 9.253906 -13.648438 9.488281 -13.445312 9.394531 -12.9375 C 9.324219 -12.667969 9.199219 -12.390625 9.03125 -12.082031 C 8.859375 -11.773438 8.636719 -11.457031 8.410156 -11.167969 C 7.960938 -10.589844 7.492188 -10.167969 7.027344 -9.902344 C 6.542969 -9.605469 6.167969 -9.457031 5.855469 -9.46875 Z M 5.855469 -9.46875 "/></g></g></g><g fill="#ff914d" fill-opacity="1"><g transform="translate(79.936672, 40.40397)"><g><path d="M 7.441406 -15.855469 C 7.714844 -15.757812 8.085938 -15.90625 8.507812 -16.300781 C 8.695312 -16.480469 8.902344 -16.714844 9.074219 -16.996094 C 9.25 -17.277344 9.425781 -17.5625 9.566406 -17.890625 C 9.707031 -18.222656 9.828125 -18.523438 9.917969 -18.847656 C 9.980469 -19.171875 10.050781 -19.464844 10.066406 -19.753906 C 10.078125 -20.304688 9.933594 -20.625 9.660156 -20.722656 C 9.359375 -20.816406 9.015625 -20.667969 8.59375 -20.277344 C 8.171875 -19.859375 7.824219 -19.320312 7.511719 -18.65625 L 7.511719 -18.683594 C 7.34375 -18.347656 7.226562 -18.019531 7.160156 -17.699219 C 7.070312 -17.375 7.027344 -17.082031 7.03125 -16.847656 C 7.011719 -16.585938 7.039062 -16.351562 7.113281 -16.179688 C 7.1875 -16.003906 7.28125 -15.886719 7.441406 -15.855469 Z M 0.371094 -0.175781 C 0.800781 -0.0742188 1.316406 -0.109375 1.972656 -0.296875 C 2.628906 -0.480469 3.316406 -0.851562 4.058594 -1.390625 C 4.777344 -1.894531 5.53125 -2.5625 6.261719 -3.410156 C 6.996094 -4.230469 7.707031 -5.261719 8.34375 -6.433594 C 8.160156 -6.230469 7.929688 -5.992188 7.625 -5.695312 C 7.296875 -5.390625 6.964844 -5.117188 6.605469 -4.863281 C 6.222656 -4.582031 5.859375 -4.351562 5.492188 -4.152344 C 5.101562 -3.945312 4.777344 -3.828125 4.515625 -3.820312 C 4.105469 -3.769531 3.851562 -3.894531 3.816406 -4.203125 C 3.78125 -4.488281 3.816406 -4.832031 3.972656 -5.242188 C 4.109375 -5.625 4.273438 -5.984375 4.488281 -6.375 C 4.671875 -6.765625 4.824219 -7.019531 4.910156 -7.1875 L 8.984375 -14.765625 L 5.359375 -14.316406 L 0.277344 -5.152344 C -0.148438 -4.367188 -0.453125 -3.675781 -0.617188 -3.109375 C -0.78125 -2.515625 -0.851562 -2.035156 -0.804688 -1.648438 C -0.777344 -1.234375 -0.65625 -0.886719 -0.445312 -0.648438 C -0.234375 -0.414062 0.046875 -0.242188 0.371094 -0.175781 Z M 0.371094 -0.175781 "/></g></g></g><g fill="#ff914d" fill-opacity="1"><g transform="translate(86.799481, 39.556355)"><g><path d="M -0.214844 -5.769531 L -3.394531 0.210938 L 0.488281 -0.269531 L 3.300781 -5.605469 C 3.597656 -4.074219 4.019531 -2.976562 4.546875 -2.285156 C 5.050781 -1.589844 5.648438 -1.195312 6.289062 -1.089844 C 6.90625 -0.957031 7.566406 -1.089844 8.25 -1.488281 C 8.933594 -1.886719 9.625 -2.414062 10.296875 -3.097656 C 10.945312 -3.753906 11.558594 -4.507812 12.132812 -5.363281 C 12.703125 -6.214844 13.203125 -7.0625 13.59375 -7.894531 C 13.386719 -7.683594 13.203125 -7.480469 13.015625 -7.300781 C 12.832031 -7.09375 12.648438 -6.886719 12.492188 -6.6875 C 12.175781 -6.28125 11.832031 -5.898438 11.449219 -5.59375 C 11.074219 -5.257812 10.660156 -5.023438 10.203125 -4.914062 C 9.75 -4.78125 9.171875 -4.8125 8.519531 -5.019531 C 8.003906 -5.167969 7.53125 -5.394531 7.097656 -5.734375 C 6.667969 -6.046875 6.308594 -6.417969 5.996094 -6.851562 C 6.226562 -6.878906 6.527344 -6.96875 6.875 -7.117188 C 7.542969 -7.40625 8.328125 -7.816406 9.199219 -8.394531 C 9.609375 -8.65625 10.113281 -9.03125 10.734375 -9.5 C 11.328125 -9.964844 11.839844 -10.46875 12.292969 -11.023438 C 12.726562 -11.546875 13.007812 -12.023438 13.160156 -12.460938 C 13.316406 -12.898438 13.324219 -13.265625 13.207031 -13.5625 C 13.066406 -13.859375 12.859375 -14.070312 12.527344 -14.210938 C 12.195312 -14.351562 11.796875 -14.40625 11.308594 -14.347656 C 10.820312 -14.285156 10.269531 -14.089844 9.628906 -13.773438 C 8.792969 -13.359375 8.023438 -12.820312 7.324219 -12.15625 C 6.621094 -11.496094 5.996094 -10.84375 5.476562 -10.207031 L 5.453125 -10.175781 L 7.617188 -14.203125 C 7.785156 -14.355469 7.972656 -14.511719 8.183594 -14.691406 C 8.398438 -14.875 8.636719 -15.0625 8.871094 -15.273438 C 9.082031 -15.457031 9.316406 -15.667969 9.554688 -15.878906 C 9.789062 -16.089844 10.050781 -16.308594 10.304688 -16.546875 C 10.796875 -17 11.3125 -17.480469 11.824219 -17.988281 C 12.335938 -18.496094 12.792969 -19.023438 13.246094 -19.601562 C 13.671875 -20.148438 14.050781 -20.691406 14.398438 -21.257812 C 14.71875 -21.820312 14.941406 -22.34375 15.089844 -22.855469 C 15.210938 -23.339844 15.230469 -23.8125 15.15625 -24.222656 C 15.050781 -24.628906 14.824219 -24.992188 14.421875 -25.304688 C 14.136719 -25.480469 13.808594 -25.621094 13.433594 -25.679688 C 13.0625 -25.738281 12.648438 -25.714844 12.214844 -25.609375 C 11.761719 -25.472656 11.34375 -25.265625 10.914062 -24.953125 C 10.480469 -24.636719 10.113281 -24.226562 9.785156 -23.714844 C 9.175781 -22.753906 8.5625 -21.789062 8 -20.832031 C 7.441406 -19.875 6.859375 -18.890625 6.304688 -17.878906 C 5.164062 -15.886719 4.058594 -13.871094 2.972656 -11.855469 C 1.894531 -9.816406 0.839844 -7.78125 -0.214844 -5.769531 Z M 8.050781 -15.773438 L 12.777344 -23.589844 C 12.90625 -23.8125 13.097656 -23.96875 13.296875 -24.042969 C 13.5 -24.097656 13.65625 -24.089844 13.824219 -24.003906 C 13.941406 -23.914062 14.0625 -23.773438 14.136719 -23.574219 C 14.214844 -23.375 14.222656 -23.113281 14.183594 -22.796875 C 14.117188 -22.476562 13.957031 -22.089844 13.746094 -21.671875 C 13.539062 -21.230469 13.207031 -20.742188 12.777344 -20.21875 C 12.417969 -19.757812 12 -19.316406 11.5625 -18.84375 C 11.101562 -18.367188 10.660156 -17.921875 10.214844 -17.503906 C 9.796875 -17.085938 9.394531 -16.746094 9.015625 -16.441406 C 8.632812 -16.132812 8.296875 -15.90625 8.050781 -15.773438 Z M 3.539062 -6.234375 L 4.617188 -8.273438 L 5.730469 -9.402344 C 5.941406 -9.609375 6.148438 -9.820312 6.382812 -10.058594 C 6.617188 -10.269531 6.824219 -10.476562 7.058594 -10.714844 C 7.503906 -11.136719 7.929688 -11.476562 8.34375 -11.734375 C 8.753906 -11.996094 9.078125 -12.113281 9.296875 -12.035156 L 9.300781 -12.011719 C 9.65625 -11.871094 9.8125 -11.65625 9.742188 -11.386719 C 9.675781 -11.089844 9.457031 -10.75 9.132812 -10.398438 C 8.789062 -10.015625 8.367188 -9.625 7.84375 -9.21875 C 7.320312 -8.789062 6.792969 -8.410156 6.242188 -8.03125 C 5.664062 -7.617188 5.160156 -7.269531 4.675781 -6.949219 C 4.195312 -6.628906 3.804688 -6.398438 3.539062 -6.234375 Z M 3.539062 -6.234375 "/></g></g></g><g fill="#ff914d" fill-opacity="1"><g transform="translate(98.315556, 38.134022)"><g><path d="M 7.441406 -15.855469 C 7.714844 -15.757812 8.085938 -15.90625 8.507812 -16.300781 C 8.695312 -16.480469 8.902344 -16.714844 9.074219 -16.996094 C 9.25 -17.277344 9.425781 -17.5625 9.566406 -17.890625 C 9.707031 -18.222656 9.828125 -18.523438 9.917969 -18.847656 C 9.980469 -19.171875 10.050781 -19.464844 10.066406 -19.753906 C 10.078125 -20.304688 9.933594 -20.625 9.660156 -20.722656 C 9.359375 -20.816406 9.015625 -20.667969 8.59375 -20.277344 C 8.171875 -19.859375 7.824219 -19.320312 7.511719 -18.65625 L 7.511719 -18.683594 C 7.34375 -18.347656 7.226562 -18.019531 7.160156 -17.699219 C 7.070312 -17.375 7.027344 -17.082031 7.03125 -16.847656 C 7.011719 -16.585938 7.039062 -16.351562 7.113281 -16.179688 C 7.1875 -16.003906 7.28125 -15.886719 7.441406 -15.855469 Z M 0.371094 -0.175781 C 0.800781 -0.0742188 1.316406 -0.109375 1.972656 -0.296875 C 2.628906 -0.480469 3.316406 -0.851562 4.058594 -1.390625 C 4.777344 -1.894531 5.53125 -2.5625 6.261719 -3.410156 C 6.996094 -4.230469 7.707031 -5.261719 8.34375 -6.433594 C 8.160156 -6.230469 7.929688 -5.992188 7.625 -5.695312 C 7.296875 -5.390625 6.964844 -5.117188 6.605469 -4.863281 C 6.222656 -4.582031 5.859375 -4.351562 5.492188 -4.152344 C 5.101562 -3.945312 4.777344 -3.828125 4.515625 -3.820312 C 4.105469 -3.769531 3.851562 -3.894531 3.816406 -4.203125 C 3.78125 -4.488281 3.816406 -4.832031 3.972656 -5.242188 C 4.109375 -5.625 4.273438 -5.984375 4.488281 -6.375 C 4.671875 -6.765625 4.824219 -7.019531 4.910156 -7.1875 L 8.984375 -14.765625 L 5.359375 -14.316406 L 0.277344 -5.152344 C -0.148438 -4.367188 -0.453125 -3.675781 -0.617188 -3.109375 C -0.78125 -2.515625 -0.851562 -2.035156 -0.804688 -1.648438 C -0.777344 -1.234375 -0.65625 -0.886719 -0.445312 -0.648438 C -0.234375 -0.414062 0.046875 -0.242188 0.371094 -0.175781 Z M 0.371094 -0.175781 "/></g></g></g><g clip-path="url(#id6)"><g fill="#000000" fill-opacity="1"><g transform="translate(46.683281, 44.16284)"><g><path d="M 23.480469 -26.371094 C 22.816406 -26.65625 22.066406 -26.824219 21.273438 -26.910156 C 20.453125 -26.992188 19.617188 -26.992188 18.738281 -26.910156 C 17.863281 -26.828125 16.96875 -26.664062 16.082031 -26.425781 C 15.203125 -26.160156 14.378906 -25.847656 13.613281 -25.492188 C 12.65625 -25.011719 11.886719 -24.472656 11.308594 -23.878906 C 10.726562 -23.285156 10.335938 -22.660156 10.097656 -22.03125 C 9.867188 -21.375 9.757812 -20.761719 9.835938 -20.144531 C 9.914062 -19.527344 10.109375 -19.003906 10.449219 -18.550781 C 10.792969 -18.097656 11.253906 -17.761719 11.855469 -17.523438 C 12.433594 -17.28125 13.121094 -17.207031 13.921875 -17.308594 C 13.402344 -17.894531 13.070312 -18.480469 12.941406 -19.09375 C 12.792969 -19.675781 12.800781 -20.25 12.964844 -20.816406 C 13.128906 -21.386719 13.429688 -21.921875 13.886719 -22.445312 C 14.34375 -22.972656 14.914062 -23.433594 15.589844 -23.882812 C 16.195312 -24.246094 16.835938 -24.558594 17.507812 -24.824219 C 18.183594 -25.066406 18.867188 -25.253906 19.53125 -25.363281 C 20.660156 -25.527344 21.554688 -25.480469 22.210938 -25.222656 C 22.875 -24.941406 23.3125 -24.550781 23.558594 -24.03125 C 23.785156 -23.484375 23.832031 -22.890625 23.683594 -22.195312 C 23.507812 -21.492188 23.171875 -20.824219 22.65625 -20.136719 C 22.117188 -19.441406 21.441406 -18.785156 20.597656 -18.210938 C 19.753906 -17.636719 18.792969 -17.175781 17.679688 -16.882812 C 18.125 -16.859375 18.523438 -16.804688 18.847656 -16.742188 C 19.171875 -16.648438 19.425781 -16.5 19.609375 -16.261719 C 19.796875 -16.023438 19.886719 -15.71875 19.910156 -15.304688 C 19.9375 -14.890625 19.871094 -14.359375 19.714844 -13.714844 C 19.535156 -12.855469 19.253906 -11.960938 18.867188 -11.078125 C 18.453125 -10.191406 18.09375 -9.308594 17.78125 -8.460938 C 17.46875 -7.589844 17.257812 -6.777344 17.148438 -5.980469 C 17.035156 -5.183594 17.207031 -4.449219 17.628906 -3.769531 C 17.894531 -3.308594 18.246094 -2.984375 18.71875 -2.78125 C 19.160156 -2.574219 19.664062 -2.507812 20.207031 -2.546875 C 20.726562 -2.585938 21.28125 -2.734375 21.851562 -2.984375 C 22.421875 -3.214844 22.953125 -3.566406 23.425781 -3.988281 C 23.917969 -4.441406 24.34375 -4.992188 24.734375 -5.640625 C 25.097656 -6.285156 25.34375 -7.046875 25.449219 -7.894531 L 23.851562 -6.652344 C 23.253906 -6.421875 22.761719 -6.386719 22.375 -6.574219 C 21.960938 -6.734375 21.675781 -7.140625 21.550781 -7.753906 C 21.410156 -8.257812 21.367188 -8.800781 21.429688 -9.355469 C 21.496094 -9.886719 21.582031 -10.445312 21.722656 -10.984375 C 21.839844 -11.523438 21.957031 -12.058594 22.074219 -12.597656 C 22.191406 -13.132812 22.257812 -13.636719 22.253906 -14.105469 C 22.246094 -14.574219 22.164062 -15.035156 21.953125 -15.480469 C 21.746094 -15.898438 21.410156 -16.273438 20.898438 -16.628906 L 20.867188 -16.652344 C 21.699219 -16.882812 22.488281 -17.269531 23.257812 -17.808594 C 23.617188 -18.0625 23.949219 -18.335938 24.253906 -18.636719 C 24.527344 -18.929688 24.773438 -19.273438 24.96875 -19.613281 C 25.4375 -20.453125 25.757812 -21.25 25.878906 -21.96875 C 25.996094 -22.6875 25.996094 -23.339844 25.847656 -23.898438 C 25.675781 -24.449219 25.40625 -24.941406 24.988281 -25.359375 C 24.570312 -25.777344 24.085938 -26.109375 23.480469 -26.371094 Z M 18.269531 -18.863281 C 18.960938 -20.042969 19.691406 -21.101562 20.410156 -22.050781 C 21.128906 -23 21.867188 -23.773438 22.609375 -24.332031 C 21.929688 -24.117188 21.246094 -23.746094 20.582031 -23.195312 C 19.917969 -22.644531 19.238281 -22.011719 18.578125 -21.25 C 17.886719 -20.488281 17.183594 -19.640625 16.511719 -18.722656 C 15.84375 -17.804688 15.167969 -16.914062 14.5 -15.996094 C 13.804688 -15.074219 13.101562 -14.203125 12.394531 -13.386719 C 11.660156 -12.5625 11.027344 -11.78125 10.4375 -11.054688 C 9.441406 -9.808594 8.476562 -8.957031 7.515625 -8.472656 C 6.558594 -7.992188 5.738281 -7.863281 5.039062 -8.039062 C 4.609375 -8.140625 4.269531 -8.335938 3.972656 -8.636719 C 3.675781 -8.914062 3.472656 -9.304688 3.355469 -9.8125 C 3.21875 -10.292969 3.175781 -10.863281 3.25 -11.523438 C 3.300781 -12.15625 3.472656 -12.910156 3.761719 -13.726562 C 3.136719 -13.285156 2.546875 -12.769531 2.015625 -12.234375 C 1.480469 -11.699219 1.027344 -11.121094 0.636719 -10.496094 C 0.242188 -9.875 -0.09375 -9.207031 -0.320312 -8.523438 C -0.546875 -7.816406 -0.671875 -7.125 -0.691406 -6.441406 C -0.738281 -5.546875 -0.636719 -4.726562 -0.359375 -3.976562 C -0.0859375 -3.226562 0.335938 -2.574219 0.867188 -2.066406 C 1.402344 -1.558594 2.074219 -1.171875 2.863281 -0.929688 C 3.625 -0.683594 4.492188 -0.632812 5.441406 -0.75 C 6.164062 -0.839844 6.875 -1.1875 7.636719 -1.804688 C 8.324219 -2.359375 8.992188 -3.09375 9.664062 -3.988281 C 10.335938 -4.878906 11.019531 -5.902344 11.714844 -7.035156 C 12.414062 -8.164062 13.117188 -9.425781 13.835938 -10.796875 C 14.558594 -12.136719 15.34375 -13.59375 16.152344 -15.101562 C 16.488281 -15.746094 16.851562 -16.390625 17.195312 -17.007812 C 17.535156 -17.625 17.902344 -18.242188 18.269531 -18.863281 Z M 18.269531 -18.863281 "/></g></g></g></g><g fill="#000000" fill-opacity="1"><g transform="translate(71.182212, 41.137015)"><g><path d="M 1.757812 -0.347656 C 2.394531 -0.269531 3.011719 -0.347656 3.636719 -0.578125 C 4.261719 -0.8125 4.875 -1.125 5.472656 -1.5625 C 6.046875 -1.972656 6.589844 -2.457031 7.125 -2.996094 C 7.65625 -3.53125 8.160156 -4.113281 8.605469 -4.746094 C 9.027344 -5.34375 9.417969 -5.96875 9.785156 -6.585938 C 10.128906 -7.203125 10.425781 -7.761719 10.671875 -8.316406 C 9.644531 -6.882812 8.675781 -5.851562 7.816406 -5.222656 C 6.953125 -4.59375 6.207031 -4.292969 5.601562 -4.320312 C 4.976562 -4.320312 4.570312 -4.636719 4.335938 -5.289062 C 4.101562 -5.910156 4.121094 -6.800781 4.398438 -7.933594 C 4.46875 -8.203125 4.542969 -8.472656 4.613281 -8.742188 C 4.6875 -8.984375 4.785156 -9.234375 4.886719 -9.480469 C 4.847656 -8.953125 4.96875 -8.601562 5.226562 -8.425781 C 5.457031 -8.246094 5.78125 -8.15625 6.167969 -8.203125 L 6.097656 -8.117188 C 6.824219 -8.152344 7.519531 -8.449219 8.136719 -8.96875 C 8.753906 -9.460938 9.226562 -10.070312 9.609375 -10.769531 C 9.757812 -11.046875 9.894531 -11.429688 10.042969 -11.917969 C 10.191406 -12.40625 10.265625 -12.859375 10.261719 -13.328125 C 10.257812 -13.773438 10.132812 -14.148438 9.9375 -14.464844 C 9.71875 -14.75 9.335938 -14.886719 8.816406 -14.875 C 7.9375 -14.792969 7.085938 -14.503906 6.308594 -14.042969 C 5.527344 -13.582031 4.789062 -13.019531 4.140625 -12.363281 C 3.464844 -11.679688 2.875 -10.957031 2.34375 -10.183594 C 1.816406 -9.390625 1.410156 -8.660156 1.074219 -7.992188 C 0.59375 -7.042969 0.210938 -6.109375 -0.0390625 -5.191406 C -0.316406 -4.269531 -0.398438 -3.449219 -0.285156 -2.734375 C -0.183594 -1.910156 0.0742188 -1.316406 0.433594 -0.941406 C 0.792969 -0.566406 1.230469 -0.386719 1.757812 -0.347656 Z M 5.855469 -9.46875 C 5.519531 -9.429688 5.316406 -9.585938 5.253906 -9.890625 C 5.164062 -10.195312 5.320312 -10.605469 5.695312 -11.171875 C 6.195312 -11.992188 6.722656 -12.578125 7.28125 -12.9375 C 7.8125 -13.261719 8.285156 -13.476562 8.664062 -13.578125 L 8.6875 -13.578125 C 9.253906 -13.648438 9.488281 -13.445312 9.394531 -12.9375 C 9.324219 -12.667969 9.199219 -12.390625 9.03125 -12.082031 C 8.859375 -11.773438 8.636719 -11.457031 8.410156 -11.167969 C 7.960938 -10.589844 7.492188 -10.167969 7.027344 -9.902344 C 6.542969 -9.605469 6.167969 -9.457031 5.855469 -9.46875 Z M 5.855469 -9.46875 "/></g></g></g><g fill="#000000" fill-opacity="1"><g transform="translate(80.513052, 39.984577)"><g><path d="M 7.441406 -15.855469 C 7.714844 -15.757812 8.085938 -15.90625 8.507812 -16.300781 C 8.695312 -16.480469 8.902344 -16.714844 9.074219 -16.996094 C 9.25 -17.277344 9.425781 -17.5625 9.566406 -17.890625 C 9.707031 -18.222656 9.828125 -18.523438 9.917969 -18.847656 C 9.980469 -19.171875 10.050781 -19.464844 10.066406 -19.753906 C 10.078125 -20.304688 9.933594 -20.625 9.660156 -20.722656 C 9.359375 -20.816406 9.015625 -20.667969 8.59375 -20.277344 C 8.171875 -19.859375 7.824219 -19.320312 7.511719 -18.65625 L 7.511719 -18.683594 C 7.34375 -18.347656 7.226562 -18.019531 7.160156 -17.699219 C 7.070312 -17.375 7.027344 -17.082031 7.03125 -16.847656 C 7.011719 -16.585938 7.039062 -16.351562 7.113281 -16.179688 C 7.1875 -16.003906 7.28125 -15.886719 7.441406 -15.855469 Z M 0.371094 -0.175781 C 0.800781 -0.0742188 1.316406 -0.109375 1.972656 -0.296875 C 2.628906 -0.480469 3.316406 -0.851562 4.058594 -1.390625 C 4.777344 -1.894531 5.53125 -2.5625 6.261719 -3.410156 C 6.996094 -4.230469 7.707031 -5.261719 8.34375 -6.433594 C 8.160156 -6.230469 7.929688 -5.992188 7.625 -5.695312 C 7.296875 -5.390625 6.964844 -5.117188 6.605469 -4.863281 C 6.222656 -4.582031 5.859375 -4.351562 5.492188 -4.152344 C 5.101562 -3.945312 4.777344 -3.828125 4.515625 -3.820312 C 4.105469 -3.769531 3.851562 -3.894531 3.816406 -4.203125 C 3.78125 -4.488281 3.816406 -4.832031 3.972656 -5.242188 C 4.109375 -5.625 4.273438 -5.984375 4.488281 -6.375 C 4.671875 -6.765625 4.824219 -7.019531 4.910156 -7.1875 L 8.984375 -14.765625 L 5.359375 -14.316406 L 0.277344 -5.152344 C -0.148438 -4.367188 -0.453125 -3.675781 -0.617188 -3.109375 C -0.78125 -2.515625 -0.851562 -2.035156 -0.804688 -1.648438 C -0.777344 -1.234375 -0.65625 -0.886719 -0.445312 -0.648438 C -0.234375 -0.414062 0.046875 -0.242188 0.371094 -0.175781 Z M 0.371094 -0.175781 "/></g></g></g><g fill="#000000" fill-opacity="1"><g transform="translate(87.375862, 39.136962)"><g><path d="M -0.214844 -5.769531 L -3.394531 0.210938 L 0.488281 -0.269531 L 3.300781 -5.605469 C 3.597656 -4.074219 4.019531 -2.976562 4.546875 -2.285156 C 5.050781 -1.589844 5.648438 -1.195312 6.289062 -1.089844 C 6.90625 -0.957031 7.566406 -1.089844 8.25 -1.488281 C 8.933594 -1.886719 9.625 -2.414062 10.296875 -3.097656 C 10.945312 -3.753906 11.558594 -4.507812 12.132812 -5.363281 C 12.703125 -6.214844 13.203125 -7.0625 13.59375 -7.894531 C 13.386719 -7.683594 13.203125 -7.480469 13.015625 -7.300781 C 12.832031 -7.09375 12.648438 -6.886719 12.492188 -6.6875 C 12.175781 -6.28125 11.832031 -5.898438 11.449219 -5.59375 C 11.074219 -5.257812 10.660156 -5.023438 10.203125 -4.914062 C 9.75 -4.78125 9.171875 -4.8125 8.519531 -5.019531 C 8.003906 -5.167969 7.53125 -5.394531 7.097656 -5.734375 C 6.667969 -6.046875 6.308594 -6.417969 5.996094 -6.851562 C 6.226562 -6.878906 6.527344 -6.96875 6.875 -7.117188 C 7.542969 -7.40625 8.328125 -7.816406 9.199219 -8.394531 C 9.609375 -8.65625 10.113281 -9.03125 10.734375 -9.5 C 11.328125 -9.964844 11.839844 -10.46875 12.292969 -11.023438 C 12.726562 -11.546875 13.007812 -12.023438 13.160156 -12.460938 C 13.316406 -12.898438 13.324219 -13.265625 13.207031 -13.5625 C 13.066406 -13.859375 12.859375 -14.070312 12.527344 -14.210938 C 12.195312 -14.351562 11.796875 -14.40625 11.308594 -14.347656 C 10.820312 -14.285156 10.269531 -14.089844 9.628906 -13.773438 C 8.792969 -13.359375 8.023438 -12.820312 7.324219 -12.15625 C 6.621094 -11.496094 5.996094 -10.84375 5.476562 -10.207031 L 5.453125 -10.175781 L 7.617188 -14.203125 C 7.785156 -14.355469 7.972656 -14.511719 8.183594 -14.691406 C 8.398438 -14.875 8.636719 -15.0625 8.871094 -15.273438 C 9.082031 -15.457031 9.316406 -15.667969 9.554688 -15.878906 C 9.789062 -16.089844 10.050781 -16.308594 10.304688 -16.546875 C 10.796875 -17 11.3125 -17.480469 11.824219 -17.988281 C 12.335938 -18.496094 12.792969 -19.023438 13.246094 -19.601562 C 13.671875 -20.148438 14.050781 -20.691406 14.398438 -21.257812 C 14.71875 -21.820312 14.941406 -22.34375 15.089844 -22.855469 C 15.210938 -23.339844 15.230469 -23.8125 15.15625 -24.222656 C 15.050781 -24.628906 14.824219 -24.992188 14.421875 -25.304688 C 14.136719 -25.480469 13.808594 -25.621094 13.433594 -25.679688 C 13.0625 -25.738281 12.648438 -25.714844 12.214844 -25.609375 C 11.761719 -25.472656 11.34375 -25.265625 10.914062 -24.953125 C 10.480469 -24.636719 10.113281 -24.226562 9.785156 -23.714844 C 9.175781 -22.753906 8.5625 -21.789062 8 -20.832031 C 7.441406 -19.875 6.859375 -18.890625 6.304688 -17.878906 C 5.164062 -15.886719 4.058594 -13.871094 2.972656 -11.855469 C 1.894531 -9.816406 0.839844 -7.78125 -0.214844 -5.769531 Z M 8.050781 -15.773438 L 12.777344 -23.589844 C 12.90625 -23.8125 13.097656 -23.96875 13.296875 -24.042969 C 13.5 -24.097656 13.65625 -24.089844 13.824219 -24.003906 C 13.941406 -23.914062 14.0625 -23.773438 14.136719 -23.574219 C 14.214844 -23.375 14.222656 -23.113281 14.183594 -22.796875 C 14.117188 -22.476562 13.957031 -22.089844 13.746094 -21.671875 C 13.539062 -21.230469 13.207031 -20.742188 12.777344 -20.21875 C 12.417969 -19.757812 12 -19.316406 11.5625 -18.84375 C 11.101562 -18.367188 10.660156 -17.921875 10.214844 -17.503906 C 9.796875 -17.085938 9.394531 -16.746094 9.015625 -16.441406 C 8.632812 -16.132812 8.296875 -15.90625 8.050781 -15.773438 Z M 3.539062 -6.234375 L 4.617188 -8.273438 L 5.730469 -9.402344 C 5.941406 -9.609375 6.148438 -9.820312 6.382812 -10.058594 C 6.617188 -10.269531 6.824219 -10.476562 7.058594 -10.714844 C 7.503906 -11.136719 7.929688 -11.476562 8.34375 -11.734375 C 8.753906 -11.996094 9.078125 -12.113281 9.296875 -12.035156 L 9.300781 -12.011719 C 9.65625 -11.871094 9.8125 -11.65625 9.742188 -11.386719 C 9.675781 -11.089844 9.457031 -10.75 9.132812 -10.398438 C 8.789062 -10.015625 8.367188 -9.625 7.84375 -9.21875 C 7.320312 -8.789062 6.792969 -8.410156 6.242188 -8.03125 C 5.664062 -7.617188 5.160156 -7.269531 4.675781 -6.949219 C 4.195312 -6.628906 3.804688 -6.398438 3.539062 -6.234375 Z M 3.539062 -6.234375 "/></g></g></g><g fill="#000000" fill-opacity="1"><g transform="translate(98.891937, 37.714629)"><g><path d="M 7.441406 -15.855469 C 7.714844 -15.757812 8.085938 -15.90625 8.507812 -16.300781 C 8.695312 -16.480469 8.902344 -16.714844 9.074219 -16.996094 C 9.25 -17.277344 9.425781 -17.5625 9.566406 -17.890625 C 9.707031 -18.222656 9.828125 -18.523438 9.917969 -18.847656 C 9.980469 -19.171875 10.050781 -19.464844 10.066406 -19.753906 C 10.078125 -20.304688 9.933594 -20.625 9.660156 -20.722656 C 9.359375 -20.816406 9.015625 -20.667969 8.59375 -20.277344 C 8.171875 -19.859375 7.824219 -19.320312 7.511719 -18.65625 L 7.511719 -18.683594 C 7.34375 -18.347656 7.226562 -18.019531 7.160156 -17.699219 C 7.070312 -17.375 7.027344 -17.082031 7.03125 -16.847656 C 7.011719 -16.585938 7.039062 -16.351562 7.113281 -16.179688 C 7.1875 -16.003906 7.28125 -15.886719 7.441406 -15.855469 Z M 0.371094 -0.175781 C 0.800781 -0.0742188 1.316406 -0.109375 1.972656 -0.296875 C 2.628906 -0.480469 3.316406 -0.851562 4.058594 -1.390625 C 4.777344 -1.894531 5.53125 -2.5625 6.261719 -3.410156 C 6.996094 -4.230469 7.707031 -5.261719 8.34375 -6.433594 C 8.160156 -6.230469 7.929688 -5.992188 7.625 -5.695312 C 7.296875 -5.390625 6.964844 -5.117188 6.605469 -4.863281 C 6.222656 -4.582031 5.859375 -4.351562 5.492188 -4.152344 C 5.101562 -3.945312 4.777344 -3.828125 4.515625 -3.820312 C 4.105469 -3.769531 3.851562 -3.894531 3.816406 -4.203125 C 3.78125 -4.488281 3.816406 -4.832031 3.972656 -5.242188 C 4.109375 -5.625 4.273438 -5.984375 4.488281 -6.375 C 4.671875 -6.765625 4.824219 -7.019531 4.910156 -7.1875 L 8.984375 -14.765625 L 5.359375 -14.316406 L 0.277344 -5.152344 C -0.148438 -4.367188 -0.453125 -3.675781 -0.617188 -3.109375 C -0.78125 -2.515625 -0.851562 -2.035156 -0.804688 -1.648438 C -0.777344 -1.234375 -0.65625 -0.886719 -0.445312 -0.648438 C -0.234375 -0.414062 0.046875 -0.242188 0.371094 -0.175781 Z M 0.371094 -0.175781 "/></g></g></g><g clip-path="url(#id7)"><path fill="#040606" d="M 23.910156 17.394531 C 24.007812 17.027344 24.101562 16.660156 24.195312 16.292969 C 24.289062 15.9375 24.382812 15.582031 24.472656 15.222656 C 24.519531 15.058594 24.574219 14.886719 24.585938 14.714844 C 24.597656 14.5 24.515625 14.328125 24.386719 14.160156 C 23.53125 13.023438 22.582031 11.960938 21.761719 10.792969 C 21.332031 10.179688 20.886719 9.570312 20.503906 8.925781 C 20.144531 8.316406 19.871094 7.667969 19.65625 6.996094 C 19.589844 7.59375 19.136719 8.101562 18.757812 8.53125 C 18.261719 9.105469 17.804688 9.714844 17.359375 10.328125 C 16.917969 10.9375 16.457031 11.550781 16.078125 12.203125 C 15.71875 12.824219 15.425781 13.480469 15.085938 14.113281 C 15.003906 14.261719 14.917969 14.40625 14.835938 14.550781 C 14.78125 14.644531 14.730469 14.742188 14.734375 14.855469 C 14.738281 14.964844 14.78125 15.078125 14.808594 15.183594 C 14.886719 15.5 14.957031 15.816406 15.023438 16.132812 C 15.164062 16.789062 15.296875 17.453125 15.488281 18.097656 C 15.585938 18.429688 15.699219 18.753906 15.84375 19.066406 C 15.929688 19.257812 16.027344 19.4375 16.101562 19.632812 C 16.160156 19.492188 16.214844 19.347656 16.226562 19.191406 C 16.269531 18.554688 15.753906 18.015625 15.867188 17.375 C 15.992188 16.652344 16.691406 16.492188 16.445312 15.613281 C 16.359375 15.304688 16.171875 15.007812 16.222656 14.691406 C 16.261719 14.429688 16.464844 14.21875 16.679688 14.058594 C 16.894531 13.898438 17.136719 13.765625 17.3125 13.566406 C 17.539062 13.308594 17.632812 12.964844 17.765625 12.652344 C 18.039062 12.003906 18.550781 11.746094 19.171875 12.058594 C 19.605469 12.273438 19.300781 12.25 19.664062 12.082031 C 19.972656 11.9375 20.238281 11.753906 20.570312 12.042969 C 20.789062 12.230469 20.824219 12.535156 21.023438 12.726562 C 21.226562 12.917969 21.484375 12.9375 21.65625 13.199219 C 21.863281 13.515625 21.988281 13.886719 22.023438 14.261719 C 22.046875 14.550781 22.019531 14.847656 22.070312 15.132812 C 22.171875 15.691406 22.714844 15.835938 22.933594 16.328125 C 23.066406 16.628906 23.128906 17.042969 23.027344 17.367188 C 22.949219 17.613281 22.734375 17.773438 22.699219 18.046875 C 22.660156 18.332031 22.820312 18.601562 22.933594 18.863281 C 22.988281 19 23.03125 19.144531 23.058594 19.292969 C 23.066406 19.28125 23.074219 19.265625 23.082031 19.25 C 23.242188 18.96875 23.453125 18.71875 23.589844 18.421875 C 23.738281 18.09375 23.820312 17.738281 23.910156 17.394531 Z M 5.347656 36.351562 C 5.878906 35.816406 6.597656 35.507812 7.3125 35.257812 C 8.917969 34.699219 10.605469 34.371094 12.304688 34.292969 C 12.753906 34.273438 13.203125 34.253906 13.648438 34.214844 C 13.882812 34.191406 14.113281 34.160156 14.347656 34.136719 C 14.480469 34.121094 14.699219 34.15625 14.800781 34.058594 C 14.863281 34 14.898438 33.917969 14.933594 33.835938 C 15.203125 33.191406 15.472656 32.542969 15.742188 31.894531 C 15.96875 31.355469 16.390625 30.703125 16.394531 30.113281 C 16.398438 29.8125 16.339844 29.511719 16.277344 29.21875 C 16.148438 28.566406 16.042969 27.867188 15.914062 27.167969 C 15.621094 26.878906 15.453125 26.523438 15.382812 26.164062 C 15.3125 25.8125 15.339844 25.453125 15.429688 25.132812 C 15.296875 24.742188 15.144531 24.367188 14.957031 24.015625 C 14.804688 23.730469 14.695312 23.398438 14.578125 23.097656 C 14.320312 22.464844 14.089844 21.820312 13.871094 21.171875 C 13.5625 20.25 13.242188 19.332031 12.960938 18.402344 C 12.699219 17.546875 12.636719 16.640625 12.550781 15.75 C 12.507812 15.316406 12.433594 14.886719 12.398438 14.453125 C 12.378906 14.191406 12.402344 13.9375 12.523438 13.703125 C 12.671875 13.421875 12.90625 13.183594 13.109375 12.945312 C 13.4375 12.566406 13.765625 12.1875 14.09375 11.8125 C 14.75 11.070312 15.421875 10.339844 16.105469 9.625 C 16.40625 9.308594 16.707031 8.992188 17.019531 8.6875 C 17.28125 8.4375 17.546875 8.195312 17.792969 7.933594 C 18.042969 7.664062 18.277344 7.367188 18.441406 7.035156 C 18.621094 6.671875 18.675781 6.296875 18.667969 5.894531 C 18.65625 5.4375 18.648438 4.976562 18.765625 4.53125 C 18.890625 4.039062 18.976562 3.527344 18.992188 3.015625 C 18.996094 2.804688 18.96875 2.597656 19.046875 2.390625 C 19.054688 2.371094 19.082031 2.363281 19.09375 2.386719 C 19.128906 2.453125 19.15625 2.519531 19.175781 2.589844 C 19.191406 2.53125 19.210938 2.476562 19.238281 2.417969 C 19.246094 2.402344 19.269531 2.40625 19.28125 2.417969 C 19.328125 2.5 19.355469 2.585938 19.371094 2.675781 C 19.371094 2.675781 19.375 2.671875 19.378906 2.671875 C 19.378906 2.667969 19.382812 2.664062 19.386719 2.660156 C 19.5 2.578125 19.578125 2.765625 19.613281 2.839844 C 19.648438 2.929688 19.679688 3.019531 19.703125 3.117188 C 19.710938 3.152344 19.714844 3.1875 19.722656 3.226562 C 19.726562 3.261719 19.769531 3.464844 19.828125 3.347656 C 19.839844 3.328125 19.871094 3.328125 19.878906 3.347656 C 20.054688 3.75 20.203125 4.164062 20.320312 4.589844 C 20.375 4.789062 20.472656 4.988281 20.507812 5.195312 C 20.539062 5.398438 20.476562 5.601562 20.460938 5.808594 C 20.445312 6.027344 20.460938 6.25 20.460938 6.472656 C 20.460938 6.699219 20.464844 6.90625 20.546875 7.121094 C 20.699219 7.503906 20.996094 7.808594 21.273438 8.097656 C 21.59375 8.425781 21.941406 8.722656 22.28125 9.027344 C 22.613281 9.328125 22.941406 9.632812 23.273438 9.929688 C 23.972656 10.546875 24.6875 11.140625 25.351562 11.796875 C 25.679688 12.121094 26 12.453125 26.332031 12.769531 C 26.472656 12.90625 26.617188 13.03125 26.773438 13.148438 C 26.882812 13.230469 26.996094 13.3125 27.035156 13.449219 C 27.078125 13.589844 27.0625 13.742188 27.050781 13.886719 C 27.035156 14.113281 27.03125 14.339844 27.007812 14.566406 C 26.960938 15.019531 26.882812 15.46875 26.792969 15.914062 C 26.703125 16.355469 26.558594 16.777344 26.421875 17.203125 C 26.285156 17.644531 26.183594 18.097656 26.058594 18.539062 C 25.816406 19.425781 25.53125 20.300781 25.210938 21.164062 C 24.847656 22.128906 24.527344 23.167969 23.980469 24.042969 C 23.6875 24.515625 23.441406 25.015625 23.230469 25.527344 C 23.296875 25.808594 23.300781 26.09375 23.238281 26.371094 C 23.148438 26.777344 22.929688 27.15625 22.605469 27.445312 C 22.574219 27.566406 22.542969 27.6875 22.511719 27.808594 C 22.246094 28.914062 21.96875 29.8125 22.242188 30.9375 C 22.488281 31.941406 23.042969 32.808594 23.34375 33.792969 C 23.355469 33.839844 23.371094 33.886719 23.402344 33.925781 C 23.554688 34.113281 24.203125 34.042969 24.421875 34.0625 C 24.890625 34.105469 25.355469 34.144531 25.820312 34.183594 C 26.707031 34.261719 27.589844 34.394531 28.472656 34.476562 C 28.769531 34.5 29.0625 34.535156 29.355469 34.585938 C 29.714844 34.648438 30.070312 34.738281 30.421875 34.839844 C 31.363281 35.066406 32.289062 35.375 33.148438 35.8125 C 33.292969 35.882812 33.429688 35.957031 33.5625 36.046875 C 33.886719 36.257812 34.183594 36.527344 34.3125 36.894531 C 34.503906 37.433594 34.242188 38.046875 33.910156 38.472656 C 33.714844 38.714844 33.457031 38.882812 33.183594 39.015625 C 32.867188 39.164062 32.546875 39.3125 32.230469 39.464844 C 31.53125 39.808594 30.804688 40.101562 30.0625 40.34375 C 29.304688 40.589844 28.527344 40.785156 27.738281 40.914062 C 27.34375 41.007812 26.941406 41.082031 26.5625 41.089844 C 26.0625 41.097656 25.566406 41.105469 25.066406 41.136719 C 24.9375 41.152344 24.808594 41.171875 24.679688 41.199219 C 24.675781 41.199219 24.675781 41.199219 24.671875 41.199219 C 24.703125 41.226562 24.738281 41.25 24.769531 41.277344 C 24.902344 41.378906 25.035156 41.488281 25.152344 41.609375 C 25.246094 41.707031 25.375 41.828125 25.425781 41.953125 C 25.46875 42.054688 25.503906 42.167969 25.519531 42.277344 C 25.546875 42.4375 25.515625 42.621094 25.335938 42.652344 C 25.257812 42.667969 25.179688 42.65625 25.105469 42.628906 C 25.03125 42.601562 24.976562 42.539062 24.890625 42.539062 C 24.878906 42.539062 24.917969 42.628906 24.921875 42.636719 C 24.789062 42.820312 24.335938 42.726562 24.15625 42.6875 C 24.039062 42.660156 23.925781 42.628906 23.8125 42.597656 C 23.476562 42.515625 23.132812 42.472656 22.785156 42.457031 C 22.03125 42.425781 21.273438 42.519531 20.515625 42.511719 C 19.726562 42.5 18.953125 42.3125 18.167969 42.242188 C 17.375 42.171875 16.578125 42.144531 15.78125 42.121094 C 13.164062 42.046875 10.464844 41.898438 8.011719 40.875 C 7.570312 40.691406 7.125 40.472656 6.703125 40.21875 C 5.945312 39.804688 5.019531 39.25 4.742188 38.425781 C 4.503906 37.707031 4.816406 36.890625 5.347656 36.351562 " fill-opacity="1" fill-rule="nonzero"/></g><path fill="#66399e" d="M 18.417969 10.476562 C 18.417969 10.980469 18.828125 11.390625 19.332031 11.390625 C 19.835938 11.390625 20.246094 10.980469 20.246094 10.476562 C 20.246094 9.972656 19.835938 9.5625 19.332031 9.5625 C 18.828125 9.5625 18.417969 9.972656 18.417969 10.476562 " fill-opacity="1" fill-rule="nonzero"/><path fill="#040606" d="M 19.332031 9.628906 C 19.796875 9.628906 20.179688 10.007812 20.179688 10.476562 C 20.179688 10.945312 19.796875 11.324219 19.332031 11.324219 C 18.863281 11.324219 18.484375 10.945312 18.484375 10.476562 C 18.484375 10.007812 18.863281 9.628906 19.332031 9.628906 Z M 19.332031 11.457031 C 19.871094 11.457031 20.308594 11.015625 20.308594 10.476562 C 20.308594 9.933594 19.871094 9.496094 19.332031 9.496094 C 18.792969 9.496094 18.351562 9.933594 18.351562 10.476562 C 18.351562 11.015625 18.792969 11.457031 19.332031 11.457031 " fill-opacity="1" fill-rule="nonzero"/><path fill="#2e47a3" d="M 18.417969 15.027344 C 18.417969 15.535156 18.828125 15.945312 19.332031 15.945312 C 19.835938 15.945312 20.246094 15.535156 20.246094 15.027344 C 20.246094 14.523438 19.835938 14.113281 19.332031 14.113281 C 18.828125 14.113281 18.417969 14.523438 18.417969 15.027344 " fill-opacity="1" fill-rule="nonzero"/><path fill="#ffffff" d="M 19.332031 14.179688 C 19.796875 14.179688 20.179688 14.5625 20.179688 15.027344 C 20.179688 15.496094 19.796875 15.878906 19.332031 15.878906 C 18.863281 15.878906 18.484375 15.496094 18.484375 15.027344 C 18.484375 14.5625 18.863281 14.179688 19.332031 14.179688 Z M 19.332031 16.011719 C 19.871094 16.011719 20.308594 15.570312 20.308594 15.027344 C 20.308594 14.488281 19.871094 14.046875 19.332031 14.046875 C 18.792969 14.046875 18.351562 14.488281 18.351562 15.027344 C 18.351562 15.570312 18.792969 16.011719 19.332031 16.011719 " fill-opacity="1" fill-rule="nonzero"/><path fill="#409ac6" d="M 18.417969 19.582031 C 18.417969 20.085938 18.828125 20.496094 19.332031 20.496094 C 19.835938 20.496094 20.246094 20.085938 20.246094 19.582031 C 20.246094 19.074219 19.835938 18.667969 19.332031 18.667969 C 18.828125 18.667969 18.417969 19.074219 18.417969 19.582031 " fill-opacity="1" fill-rule="nonzero"/><path fill="#ffffff" d="M 19.332031 18.734375 C 19.796875 18.734375 20.179688 19.113281 20.179688 19.582031 C 20.179688 20.050781 19.796875 20.429688 19.332031 20.429688 C 18.863281 20.429688 18.484375 20.050781 18.484375 19.582031 C 18.484375 19.113281 18.863281 18.734375 19.332031 18.734375 Z M 19.332031 20.5625 C 19.871094 20.5625 20.308594 20.121094 20.308594 19.582031 C 20.308594 19.039062 19.871094 18.601562 19.332031 18.601562 C 18.792969 18.601562 18.351562 19.039062 18.351562 19.582031 C 18.351562 20.121094 18.792969 20.5625 19.332031 20.5625 " fill-opacity="1" fill-rule="nonzero"/><path fill="#46bc4a" d="M 18.417969 24.132812 C 18.417969 24.640625 18.828125 25.050781 19.332031 25.050781 C 19.835938 25.050781 20.246094 24.640625 20.246094 24.132812 C 20.246094 23.628906 19.835938 23.21875 19.332031 23.21875 C 18.828125 23.21875 18.417969 23.628906 18.417969 24.132812 " fill-opacity="1" fill-rule="nonzero"/><path fill="#ffffff" d="M 19.332031 23.285156 C 19.796875 23.285156 20.179688 23.664062 20.179688 24.132812 C 20.179688 24.601562 19.796875 24.984375 19.332031 24.984375 C 18.863281 24.984375 18.484375 24.601562 18.484375 24.132812 C 18.484375 23.664062 18.863281 23.285156 19.332031 23.285156 Z M 19.332031 25.113281 C 19.871094 25.113281 20.308594 24.675781 20.308594 24.132812 C 20.308594 23.59375 19.871094 23.152344 19.332031 23.152344 C 18.792969 23.152344 18.351562 23.59375 18.351562 24.132812 C 18.351562 24.675781 18.792969 25.113281 19.332031 25.113281 " fill-opacity="1" fill-rule="nonzero"/><path fill="#d8b71f" d="M 18.417969 28.6875 C 18.417969 29.191406 18.828125 29.601562 19.332031 29.601562 C 19.835938 29.601562 20.246094 29.191406 20.246094 28.6875 C 20.246094 28.179688 19.835938 27.773438 19.332031 27.773438 C 18.828125 27.773438 18.417969 28.179688 18.417969 28.6875 " fill-opacity="1" fill-rule="nonzero"/><path fill="#ffffff" d="M 19.332031 27.835938 C 19.796875 27.835938 20.179688 28.21875 20.179688 28.6875 C 20.179688 29.15625 19.796875 29.535156 19.332031 29.535156 C 18.863281 29.535156 18.484375 29.15625 18.484375 28.6875 C 18.484375 28.21875 18.863281 27.835938 19.332031 27.835938 Z M 19.332031 29.667969 C 19.871094 29.667969 20.308594 29.226562 20.308594 28.6875 C 20.308594 28.144531 19.871094 27.707031 19.332031 27.707031 C 18.792969 27.707031 18.351562 28.144531 18.351562 28.6875 C 18.351562 29.226562 18.792969 29.667969 19.332031 29.667969 " fill-opacity="1" fill-rule="nonzero"/><path fill="#df7b20" d="M 18.417969 33.238281 C 18.417969 33.746094 18.828125 34.15625 19.332031 34.15625 C 19.835938 34.15625 20.246094 33.746094 20.246094 33.238281 C 20.246094 32.734375 19.835938 32.324219 19.332031 32.324219 C 18.828125 32.324219 18.417969 32.734375 18.417969 33.238281 " fill-opacity="1" fill-rule="nonzero"/><path fill="#ffffff" d="M 19.332031 32.390625 C 19.796875 32.390625 20.179688 32.769531 20.179688 33.238281 C 20.179688 33.707031 19.796875 34.089844 19.332031 34.089844 C 18.863281 34.089844 18.484375 33.707031 18.484375 33.238281 C 18.484375 32.769531 18.863281 32.390625 19.332031 32.390625 Z M 19.332031 34.21875 C 19.871094 34.21875 20.308594 33.78125 20.308594 33.238281 C 20.308594 32.699219 19.871094 32.257812 19.332031 32.257812 C 18.792969 32.257812 18.351562 32.699219 18.351562 33.238281 C 18.351562 33.78125 18.792969 34.21875 19.332031 34.21875 " fill-opacity="1" fill-rule="nonzero"/><path fill="#e42b28" d="M 18.417969 37.792969 C 18.417969 38.296875 18.828125 38.707031 19.332031 38.707031 C 19.835938 38.707031 20.246094 38.296875 20.246094 37.792969 C 20.246094 37.285156 19.835938 36.875 19.332031 36.875 C 18.828125 36.875 18.417969 37.285156 18.417969 37.792969 " fill-opacity="1" fill-rule="nonzero"/><path fill="#ffffff" d="M 19.332031 36.941406 C 19.796875 36.941406 20.179688 37.324219 20.179688 37.792969 C 20.179688 38.261719 19.796875 38.640625 19.332031 38.640625 C 18.863281 38.640625 18.484375 38.261719 18.484375 37.792969 C 18.484375 37.324219 18.863281 36.941406 19.332031 36.941406 Z M 19.332031 38.773438 C 19.871094 38.773438 20.308594 38.332031 20.308594 37.792969 C 20.308594 37.25 19.871094 36.8125 19.332031 36.8125 C 18.792969 36.8125 18.351562 37.25 18.351562 37.792969 C 18.351562 38.332031 18.792969 38.773438 19.332031 38.773438 " fill-opacity="1" fill-rule="nonzero"/></svg>